<svg xmlns="http://www.w3.org/2000/svg" width="8" height="8.726" viewBox="0 0 8 8.726">
    <path d="M6.97 6.861a1.8 1.8 0 0 1 1.062-1.652 2.348 2.348 0 0 0-1.8-.869 8.118 8.118 0 0 0-1.881.4 15.63 15.63 0 0 0-1.623-.38A2.452 2.452 0 0 0 .281 6.955a4.5 4.5 0 0 0 .306 1.582c.272.715 1.254 2.468 2.278 2.439.536-.012.914-.349 1.611-.349.676 0 1.026.349 1.624.349 1.033-.014 1.921-1.607 2.181-2.324A1.91 1.91 0 0 1 6.97 6.861zm-1.2-3.2a1.731 1.731 0 0 0 .51-1.413 2.327 2.327 0 0 0-1.443.68 1.774 1.774 0 0 0-.544 1.4A1.848 1.848 0 0 0 5.77 3.66z" transform="translate(-.281 -2.25)"/>
</svg>
