<svg xmlns="http://www.w3.org/2000/svg" width="75" height="75" viewBox="0 0 75 75">
    <defs>
        <clipPath id="clip-path">
            <path id="사각형_5818" fill="none" d="M0 0H75V75H0z"/>
        </clipPath>
        <style>
            .cls-4{fill:#373737}.cls-5{fill:#fff}
        </style>
    </defs>
    <g id="그룹_12233">
        <g id="그룹_12232" clip-path="url(#clip-path)">
            <path id="사각형_5814" fill="#9c93ce" d="M15.32 0h44.359A15.321 15.321 0 0 1 75 15.321v44.358A15.321 15.321 0 0 1 59.679 75H15.32A15.32 15.32 0 0 1 0 59.68V15.32A15.32 15.32 0 0 1 15.32 0z"/>
            <path id="사각형_5815" d="M2.474 0h2.251A2.475 2.475 0 0 1 7.2 2.475v8.156a2.474 2.474 0 0 1-2.474 2.474H2.474A2.474 2.474 0 0 1 0 10.631V2.474A2.474 2.474 0 0 1 2.474 0z" class="cls-4" transform="translate(51.14 44.719)"/>
            <path id="사각형_5816" d="M2.475 0h2.251A2.474 2.474 0 0 1 7.2 2.474v8.157a2.474 2.474 0 0 1-2.474 2.474H2.475A2.475 2.475 0 0 1 0 10.63V2.475A2.475 2.475 0 0 1 2.475 0z" class="cls-4" transform="translate(17.536 44.719)"/>
            <path id="패스_7473" d="M58.423 30.19c-.37-3.448-2.81-6.278-6.279-6.278H31.109c-3.467 0-5.664 2.953-6.278 6.278l-2.092 9.718h37.285z" class="cls-5" transform="translate(-3.499 -3.68)"/>
            <path id="패스_7474" d="M59.87 40.6H22.585a.846.846 0 0 1-.827-1.024l2.092-9.719c.778-4.21 3.569-6.947 7.1-6.947h21.041c3.689 0 6.683 2.959 7.12 7.035l1.589 9.672a.845.845 0 0 1-.834.984m-36.233-1.693h35.24l-1.438-8.735c-.355-3.3-2.591-5.57-5.444-5.57H30.955c-3.257 0-4.97 3.01-5.446 5.586z" class="cls-4" transform="translate(-3.345 -3.526)"/>
            <path id="패스_7475" d="M56.021 32.232a5.118 5.118 0 0 0-5.153-4.612H33.6c-2.845 0-4.647 2.169-5.153 4.612l-1.276 7.139H57.2z" class="cls-5" transform="translate(-4.182 -4.251)"/>
            <path id="패스_7476" d="M57.083 39.891H27.058a.635.635 0 0 1-.624-.746l1.276-7.139c.647-3.126 2.913-5.135 5.777-5.135h17.265a5.777 5.777 0 0 1 5.783 5.171l1.174 7.112a.635.635 0 0 1-.626.738m-29.267-1.27h28.519l-1.056-6.4a4.478 4.478 0 0 0-4.527-4.081H33.486a4.75 4.75 0 0 0-4.531 4.106z" class="cls-4" transform="translate(-4.066 -4.135)"/>
            <path id="사각형_5817" d="M4.947 0h34.958a4.947 4.947 0 0 1 4.947 4.947v5.981a4.946 4.946 0 0 1-4.946 4.946H4.946A4.946 4.946 0 0 1 0 10.928V4.947A4.947 4.947 0 0 1 4.947 0z" class="cls-5" transform="translate(15.455 35.213)"/>
            <path id="패스_7477" d="M58.779 58.184H22.3a5.037 5.037 0 0 1-5.032-5.032v-7.5a5.037 5.037 0 0 1 5.032-5.034h36.479a5.037 5.037 0 0 1 5.031 5.032v7.5a5.037 5.037 0 0 1-5.032 5.032M22.3 42.31a3.343 3.343 0 0 0-3.34 3.34v7.5a3.343 3.343 0 0 0 3.34 3.34h36.479a3.343 3.343 0 0 0 3.34-3.34v-7.5a3.344 3.344 0 0 0-3.34-3.34z" class="cls-4" transform="translate(-2.657 -6.251)"/>
            <path id="패스_7478" d="M65.851 49.218a1.681 1.681 0 0 1-1.68 1.68H61.6a1.726 1.726 0 0 1-1.762-1.425l-.145-.481c-.3-1.024-.335-1.834.882-1.849h3.593a1.681 1.681 0 0 1 1.68 1.68z" class="cls-5" transform="translate(-9.16 -7.255)"/>
            <path id="패스_7479" d="M64.017 51.59h-2.568a2.564 2.564 0 0 1-2.565-2l-.152-.5a2.539 2.539 0 0 1 .107-2.261 1.867 1.867 0 0 1 1.573-.679h3.6a2.528 2.528 0 0 1 2.526 2.526v.393a2.529 2.529 0 0 1-2.526 2.526m-3.8-3.734a2.558 2.558 0 0 0 .141.745l.143.471c.254.764.555.825.952.825h2.567a.835.835 0 0 0 .833-.834v-.398a.835.835 0 0 0-.833-.834h-3.591a1.089 1.089 0 0 0-.211.02" class="cls-4" transform="translate(-9.006 -7.101)"/>
            <path id="패스_7480" d="M22.8 49.218a1.681 1.681 0 0 0 1.68 1.68h2.568a1.726 1.726 0 0 0 1.762-1.425l.145-.481c.3-1.024.335-1.834-.882-1.849H24.48a1.681 1.681 0 0 0-1.68 1.68z" class="cls-5" transform="translate(-3.509 -7.255)"/>
            <path id="패스_7481" d="M26.894 51.59h-2.568a2.529 2.529 0 0 1-2.526-2.526v-.394a2.529 2.529 0 0 1 2.526-2.526h3.593a1.875 1.875 0 0 1 1.584.679 2.533 2.533 0 0 1 .11 2.252l-.148.488a2.576 2.576 0 0 1-2.571 2.026m1.014-3.754h-3.582a.835.835 0 0 0-.834.834v.393a.836.836 0 0 0 .834.834h2.567c.4 0 .7-.061.959-.846l.138-.459a2.585 2.585 0 0 0 .14-.737 1.132 1.132 0 0 0-.223-.02" class="cls-4" transform="translate(-3.355 -7.101)"/>
            <path id="패스_7482" d="M72.717 38.423a2.051 2.051 0 0 1-2.095 2.006h-2.216a2.051 2.051 0 0 1-2.093-2.006v-.47a2.052 2.052 0 0 1 2.093-2.007h2.216a2.052 2.052 0 0 1 2.095 2.007z" class="cls-5" transform="translate(-10.205 -5.532)"/>
            <path id="패스_7483" d="M70.468 41.121h-2.216a2.9 2.9 0 0 1-2.94-2.852V37.8a2.9 2.9 0 0 1 2.94-2.853h2.216a2.9 2.9 0 0 1 2.941 2.853v.47a2.9 2.9 0 0 1-2.941 2.852m-2.216-4.483A1.208 1.208 0 0 0 67 37.8v.47a1.208 1.208 0 0 0 1.248 1.16h2.216a1.208 1.208 0 0 0 1.249-1.16v-.47a1.208 1.208 0 0 0-1.249-1.161z" class="cls-4" transform="translate(-10.051 -5.378)"/>
            <path id="패스_7484" d="M22.308 38.423a2.052 2.052 0 0 1-2.095 2.006H18a2.052 2.052 0 0 1-2.1-2.006v-.47a2.053 2.053 0 0 1 2.1-2.007h2.215a2.053 2.053 0 0 1 2.095 2.007z" class="cls-5" transform="translate(-2.447 -5.532)"/>
            <path id="패스_7485" d="M20.059 41.121h-2.215a2.9 2.9 0 0 1-2.944-2.852V37.8a2.9 2.9 0 0 1 2.942-2.853h2.215A2.9 2.9 0 0 1 23 37.8v.47a2.9 2.9 0 0 1-2.941 2.852m-2.215-4.483a1.209 1.209 0 0 0-1.25 1.161v.47a1.209 1.209 0 0 0 1.25 1.16h2.215a1.208 1.208 0 0 0 1.249-1.16v-.47a1.208 1.208 0 0 0-1.249-1.161z" class="cls-4" transform="translate(-2.293 -5.378)"/>
        </g>
    </g>
</svg>
