<svg xmlns="http://www.w3.org/2000/svg" xmlns:xlink="http://www.w3.org/1999/xlink" width="93.32" height="109.719" viewBox="0 0 93.32 109.719">
    <defs>
        <linearGradient id="linear-gradient" x2="1" y1=".5" y2=".5" gradientUnits="objectBoundingBox">
            <stop offset="0" stop-color="#bb6af7"/>
            <stop offset="1" stop-color="#bbd2f7"/>
        </linearGradient>
        <linearGradient id="linear-gradient-2" x1=".5" x2=".5" y1="0" y2="1" xlink:href="#linear-gradient"/>
        <style>
            .cls-6,.cls-7{fill:none}.cls-6{stroke-miterlimit:10}.cls-7{stroke:#a369f4}.cls-6{stroke:#ddc914}.cls-7{stroke-linecap:round;stroke-linejoin:round;stroke-width:2px}
        </style>
    </defs>
    <g id="그룹_12184" transform="translate(-133 -270.5)">
        <g id="Logo" transform="translate(133 339.181)">
            <g id="logo-2">
                <g id="그룹_2174">
                    <path id="패스_7274" d="M155.962 705.2h5.549a15.852 15.852 0 0 1 3.83.451 8.767 8.767 0 0 1 3.166 1.458 7.149 7.149 0 0 1 2.146 2.62 8.789 8.789 0 0 1 .795 3.913 7.983 7.983 0 0 1-.771 3.592 7.728 7.728 0 0 1-2.075 2.609 9.173 9.173 0 0 1-3.012 1.6 11.689 11.689 0 0 1-3.581.545h-6.047zm3.7 13.374h1.921a10.336 10.336 0 0 0 2.383-.261 5.1 5.1 0 0 0 1.909-.866 4.152 4.152 0 0 0 1.269-1.589 5.634 5.634 0 0 0 .462-2.407 4.7 4.7 0 0 0-.462-2.146 4.294 4.294 0 0 0-1.244-1.505 5.459 5.459 0 0 0-1.838-.889 8.167 8.167 0 0 0-2.217-.3h-2.182z" transform="translate(-155.265 -686.646)"/>
                    <path id="패스_7275" d="M301.075 753.792a5.673 5.673 0 0 1-2.158 1.683 6.466 6.466 0 0 1-2.7.593 7.27 7.27 0 0 1-2.5-.427 6.017 6.017 0 0 1-2.039-1.221 5.721 5.721 0 0 1-1.364-1.909 6.474 6.474 0 0 1 0-4.98 5.73 5.73 0 0 1 1.364-1.909 6.021 6.021 0 0 1 2.039-1.221 7.267 7.267 0 0 1 2.5-.427 5.7 5.7 0 0 1 2.241.427 4.667 4.667 0 0 1 1.707 1.221 5.571 5.571 0 0 1 1.079 1.909 7.705 7.705 0 0 1 .379 2.49v1.115h-8.252a2.814 2.814 0 0 0 .925 1.624 2.615 2.615 0 0 0 1.755.6 2.672 2.672 0 0 0 1.482-.391 3.978 3.978 0 0 0 1.055-1.008zm-3.011-5.075a2.061 2.061 0 0 0-.593-1.541 2.109 2.109 0 0 0-1.589-.64 2.67 2.67 0 0 0-1.043.19 2.619 2.619 0 0 0-.771.486 2.136 2.136 0 0 0-.5.688 2.257 2.257 0 0 0-.2.818z" transform="translate(-271.922 -720.437)"/>
                    <path id="패스_7276" d="M401.923 754.337h-.047a3.346 3.346 0 0 1-1.577 1.328 5.421 5.421 0 0 1-2.075.4 5.355 5.355 0 0 1-1.553-.225 3.92 3.92 0 0 1-1.316-.676 3.257 3.257 0 0 1-.9-1.115 3.4 3.4 0 0 1-.332-1.541 3.533 3.533 0 0 1 .367-1.684 3.291 3.291 0 0 1 1-1.138 4.951 4.951 0 0 1 1.435-.7 10.494 10.494 0 0 1 1.672-.368 16.025 16.025 0 0 1 1.731-.142q.865-.024 1.6-.024a1.85 1.85 0 0 0-.676-1.506 2.439 2.439 0 0 0-1.6-.557 3.483 3.483 0 0 0-1.6.367 4.372 4.372 0 0 0-1.292 1.008l-1.9-1.945a6.526 6.526 0 0 1 2.324-1.387 8.309 8.309 0 0 1 2.751-.462 7.186 7.186 0 0 1 2.573.391 3.741 3.741 0 0 1 1.612 1.15 4.432 4.432 0 0 1 .842 1.861 12.233 12.233 0 0 1 .237 2.549v5.857h-3.272zm-.877-3.6q-.4 0-1.008.035a5.125 5.125 0 0 0-1.162.2 2.591 2.591 0 0 0-.949.5 1.148 1.148 0 0 0-.391.925 1.016 1.016 0 0 0 .546.948 2.279 2.279 0 0 0 1.138.308 3.566 3.566 0 0 0 1.008-.142 3 3 0 0 0 .866-.4 1.949 1.949 0 0 0 .6-.664 1.913 1.913 0 0 0 .225-.949v-.759z" transform="translate(-362.835 -720.437)"/>
                    <path id="패스_7277" d="M498.061 696.342h3.557v17.927h-3.557z" transform="translate(-453.424 -678.923)"/>
                    <path id="패스_7278" fill="url(#linear-gradient)" d="M543.846 703.943a2.064 2.064 0 1 1 .6 1.458 1.988 1.988 0 0 1-.6-1.458z" transform="translate(-493.329 -683.75)"/>
                    <path id="사각형_152" d="M0 0H3.557V11.525H0z" transform="translate(50.802 23.822)"/>
                    <path id="패스_7279" d="M602.891 754.811a6.852 6.852 0 0 1-1.648 4.968 6.707 6.707 0 0 1-5.015 1.7 13.51 13.51 0 0 1-3.036-.344 6.873 6.873 0 0 1-2.751-1.34l1.968-2.94a7.461 7.461 0 0 0 1.743 1.091 4.906 4.906 0 0 0 2 .4 3.224 3.224 0 0 0 2.407-.794 2.794 2.794 0 0 0 .771-2.028v-1.115h-.047a3.354 3.354 0 0 1-1.53 1.174 4.9 4.9 0 0 1-1.719.344 5.935 5.935 0 0 1-2.324-.439 5.173 5.173 0 0 1-1.79-1.233 5.491 5.491 0 0 1-1.15-1.885 6.856 6.856 0 0 1-.4-2.4 6.925 6.925 0 0 1 .368-2.229 6.092 6.092 0 0 1 1.043-1.921 5.239 5.239 0 0 1 1.648-1.34 4.678 4.678 0 0 1 2.205-.51 5.359 5.359 0 0 1 2.514.593 4.138 4.138 0 0 1 .854.581 3.7 3.7 0 0 1 .569.628h.047v-1.518h3.272zm-8.964-4.861a2.777 2.777 0 0 0 .818 1.98 3.126 3.126 0 0 0 .9.629 2.637 2.637 0 0 0 1.126.237 2.664 2.664 0 0 0 1.115-.237 3.081 3.081 0 0 0 .913-.629 2.8 2.8 0 0 0 0-3.96 3.081 3.081 0 0 0-.913-.629 2.67 2.67 0 0 0-1.115-.237 2.643 2.643 0 0 0-1.126.237 3.126 3.126 0 0 0-.9.629 2.777 2.777 0 0 0-.818 1.98z" transform="translate(-533.877 -720.437)"/>
                    <path id="패스_7280" d="M713.56 696.342v7.968h.047a2.144 2.144 0 0 1 .4-.664 3.147 3.147 0 0 1 .688-.593 3.734 3.734 0 0 1 .948-.427 4.056 4.056 0 0 1 1.186-.166 4.9 4.9 0 0 1 2.182.415 3.156 3.156 0 0 1 1.292 1.15 4.653 4.653 0 0 1 .629 1.731 13.184 13.184 0 0 1 .166 2.158v6.355h-3.557v-5.644q0-.5-.036-1.031a3.257 3.257 0 0 0-.213-.984 1.53 1.53 0 0 0-1.6-1.02 2.2 2.2 0 0 0-1.115.249 1.7 1.7 0 0 0-.652.664 2.71 2.71 0 0 0-.3.937 8.059 8.059 0 0 0-.071 1.091v5.739H710v-17.928z" transform="translate(-638.144 -678.923)"/>
                    <path id="패스_7281" d="M816.262 725.864h-3.13v3.842a7.177 7.177 0 0 0 .047.866 1.742 1.742 0 0 0 .213.676 1.076 1.076 0 0 0 .51.439 2.256 2.256 0 0 0 .913.154 6.12 6.12 0 0 0 .747-.059 1.262 1.262 0 0 0 .7-.273v2.964a5.387 5.387 0 0 1-1.233.284 11.35 11.35 0 0 1-1.257.071 6.833 6.833 0 0 1-1.66-.19 3.775 3.775 0 0 1-1.328-.6 2.828 2.828 0 0 1-.889-1.079 3.687 3.687 0 0 1-.32-1.612v-5.478H807.3v-2.846h2.276V719.6h3.557v3.415h3.13z" transform="translate(-722.942 -699.197)"/>
                </g>
            </g>
        </g>
        <g id="그룹_12036" transform="translate(163.012 271)">
            <path id="패스_7311" fill="url(#linear-gradient-2)" stroke="#a369f4" stroke-miterlimit="10" d="M396.506 93.569a9.709 9.709 0 0 1-9.533-11.532.461.461 0 0 0-.455-.545h-13.812a7.517 7.517 0 0 0-7.5 7.5v44.938a7.517 7.517 0 0 0 7.5 7.5h18.143a7.517 7.517 0 0 0 7.5-7.5V94.054a.488.488 0 0 0-.487-.486z" transform="translate(-365.211 -81.492)"/>
            <g id="그룹_12033" transform="translate(12.476 59.985)">
                <rect id="사각형_1795" width="8.173" height="12.36" fill="#d3ad88" stroke="#a369f4" stroke-miterlimit="10" rx="1"/>
            </g>
            <path id="사각형_1796" fill="#fff115" stroke="#ddc914" stroke-miterlimit="10" d="M0 0H6.32V7.645H0z" transform="translate(7.199 45.892)"/>
            <path id="선_153" d="M0 0L0 7.449" class="cls-6" transform="translate(8.836 45.878)"/>
            <path id="선_154" d="M0 0L0 7.449" class="cls-6" transform="translate(11.883 45.878)"/>
            <rect id="사각형_1797" width="3.047" height="2.709" class="cls-6" rx="1.354" transform="translate(8.836 48.473)"/>
            <path id="선_155" d="M0 0L0 26.974" class="cls-7" transform="translate(12.504 15.236)"/>
            <path id="선_156" d="M0 0L0 26.974" class="cls-7" transform="translate(20.742 15.236)"/>
        </g>
    </g>
</svg>
