<svg xmlns="http://www.w3.org/2000/svg" xmlns:xlink="http://www.w3.org/1999/xlink" width="83.5" height="98.226" viewBox="0 0 83.5 98.226">
    <defs>
        <linearGradient id="linear-gradient" x2="1" y1=".5" y2=".5" gradientUnits="objectBoundingBox">
            <stop offset="0" stop-color="#bb6af7"/>
            <stop offset="1" stop-color="#bbd2f7"/>
        </linearGradient>
        <linearGradient id="linear-gradient-2" x1=".5" x2=".5" y1="0" y2="1" xlink:href="#linear-gradient"/>
        <style>
            .cls-6,.cls-7{fill:none}.cls-6{stroke-miterlimit:10}.cls-7{stroke:#a369f4}.cls-6{stroke:#ddc914}.cls-7{stroke-linecap:round;stroke-linejoin:round;stroke-width:2px}
        </style>
    </defs>
    <g id="LOGO" transform="translate(0 .5)">
        <g id="Logo-2">
            <g id="logo-3" transform="translate(-161 -127.397)">
                <g id="그룹_2174" transform="translate(161 188.404)">
                    <path id="패스_7274" d="M155.962 705.2h4.965a14.183 14.183 0 0 1 3.427.4 7.846 7.846 0 0 1 2.833 1.3 6.4 6.4 0 0 1 1.92 2.345 7.864 7.864 0 0 1 .711 3.5 7.143 7.143 0 0 1-.69 3.214 6.915 6.915 0 0 1-1.857 2.334 8.206 8.206 0 0 1-2.695 1.432 10.459 10.459 0 0 1-3.2.488h-5.411zm3.31 11.967h1.719a9.248 9.248 0 0 0 2.132-.233 4.561 4.561 0 0 0 1.708-.775 3.715 3.715 0 0 0 1.135-1.422 5.041 5.041 0 0 0 .414-2.154 4.2 4.2 0 0 0-.414-1.92 3.842 3.842 0 0 0-1.114-1.347 4.885 4.885 0 0 0-1.644-.8 7.309 7.309 0 0 0-1.984-.265h-1.952z" transform="translate(-155.339 -688.599)"/>
                    <path id="패스_7275" d="M299.89 752.758a5.077 5.077 0 0 1-1.931 1.506 5.787 5.787 0 0 1-2.419.531 6.5 6.5 0 0 1-2.239-.382 5.384 5.384 0 0 1-1.825-1.093 5.119 5.119 0 0 1-1.22-1.708 5.792 5.792 0 0 1 0-4.456 5.127 5.127 0 0 1 1.22-1.708 5.389 5.389 0 0 1 1.825-1.093 6.5 6.5 0 0 1 2.239-.382 5.1 5.1 0 0 1 2.005.382 4.177 4.177 0 0 1 1.528 1.093 4.986 4.986 0 0 1 .966 1.708 6.894 6.894 0 0 1 .339 2.228v1h-7.384a2.518 2.518 0 0 0 .828 1.453 2.34 2.34 0 0 0 1.57.541 2.39 2.39 0 0 0 1.326-.35 3.56 3.56 0 0 0 .944-.9zm-2.695-4.541a1.844 1.844 0 0 0-.53-1.379 1.887 1.887 0 0 0-1.422-.573 2.388 2.388 0 0 0-.934.17 2.343 2.343 0 0 0-.69.435 1.911 1.911 0 0 0-.446.615 2.021 2.021 0 0 0-.18.732z" transform="translate(-273.805 -722.914)"/>
                    <path id="패스_7276" d="M401.1 753.246h-.042a2.994 2.994 0 0 1-1.411 1.188 4.854 4.854 0 0 1-1.857.361 4.792 4.792 0 0 1-1.39-.2 3.506 3.506 0 0 1-1.178-.6 2.915 2.915 0 0 1-.806-1 3.04 3.04 0 0 1-.3-1.379 3.161 3.161 0 0 1 .329-1.506 2.946 2.946 0 0 1 .891-1.018 4.433 4.433 0 0 1 1.284-.626 9.387 9.387 0 0 1 1.5-.329 14.329 14.329 0 0 1 1.549-.127q.774-.021 1.432-.021a1.655 1.655 0 0 0-.6-1.347 2.182 2.182 0 0 0-1.432-.5 3.117 3.117 0 0 0-1.432.329 3.912 3.912 0 0 0-1.156.9l-1.7-1.74a5.838 5.838 0 0 1 2.079-1.241 7.433 7.433 0 0 1 2.461-.414 6.43 6.43 0 0 1 2.3.35 3.348 3.348 0 0 1 1.443 1.029 3.967 3.967 0 0 1 .753 1.666 10.946 10.946 0 0 1 .212 2.281v5.241H401.1zm-.785-3.225q-.361 0-.9.032a4.585 4.585 0 0 0-1.04.18 2.318 2.318 0 0 0-.849.445 1.028 1.028 0 0 0-.35.828.91.91 0 0 0 .488.849 2.039 2.039 0 0 0 1.018.276 3.2 3.2 0 0 0 .9-.127 2.691 2.691 0 0 0 .775-.361 1.744 1.744 0 0 0 .541-.594 1.711 1.711 0 0 0 .2-.849v-.679z" transform="translate(-366.127 -722.914)"/>
                    <path id="패스_7277" d="M498.061 696.342h3.183v16.041h-3.183z" transform="translate(-458.121 -680.756)"/>
                    <path id="패스_7278" fill="url(#linear-gradient)" d="M543.846 703.726a1.847 1.847 0 1 1 .541 1.3 1.779 1.779 0 0 1-.541-1.3z" transform="translate(-498.644 -685.657)"/>
                    <path id="사각형_152" d="M0 0H3.183V10.312H0z" transform="translate(45.456 21.315)"/>
                    <path id="패스_7279" d="M601.573 753.671a6.131 6.131 0 0 1-1.475 4.445 6 6 0 0 1-4.488 1.517 12.089 12.089 0 0 1-2.716-.308 6.148 6.148 0 0 1-2.461-1.2l1.761-2.631a6.671 6.671 0 0 0 1.559.976 4.39 4.39 0 0 0 1.793.361 2.884 2.884 0 0 0 2.154-.711 2.5 2.5 0 0 0 .69-1.814v-1h-.042a3 3 0 0 1-1.369 1.05 4.381 4.381 0 0 1-1.538.307 5.311 5.311 0 0 1-2.079-.393 4.628 4.628 0 0 1-1.6-1.1 4.914 4.914 0 0 1-1.029-1.687 6.132 6.132 0 0 1-.361-2.143 6.2 6.2 0 0 1 .329-1.995 5.45 5.45 0 0 1 .933-1.719 4.687 4.687 0 0 1 1.475-1.2 4.185 4.185 0 0 1 1.973-.456 4.8 4.8 0 0 1 2.249.531 3.7 3.7 0 0 1 .764.52 3.308 3.308 0 0 1 .509.562h.042v-1.358h2.928zm-8.021-4.35a2.485 2.485 0 0 0 .732 1.772 2.8 2.8 0 0 0 .806.562 2.359 2.359 0 0 0 1.008.212 2.383 2.383 0 0 0 1-.212 2.757 2.757 0 0 0 .817-.562 2.5 2.5 0 0 0 0-3.543 2.759 2.759 0 0 0-.817-.562 2.389 2.389 0 0 0-1-.212 2.364 2.364 0 0 0-1.008.212 2.8 2.8 0 0 0-.806.562 2.486 2.486 0 0 0-.732 1.772z" transform="translate(-539.821 -722.914)"/>
                    <path id="패스_7280" d="M713.186 696.342v7.129h.042a1.917 1.917 0 0 1 .361-.594 2.819 2.819 0 0 1 .615-.53 3.343 3.343 0 0 1 .849-.382 3.63 3.63 0 0 1 1.061-.149 4.387 4.387 0 0 1 1.952.371 2.825 2.825 0 0 1 1.156 1.029 4.164 4.164 0 0 1 .562 1.549 11.8 11.8 0 0 1 .148 1.931v5.686h-3.182v-5.05q0-.445-.032-.923a2.917 2.917 0 0 0-.191-.88 1.369 1.369 0 0 0-1.432-.912 1.966 1.966 0 0 0-1 .223 1.519 1.519 0 0 0-.583.594 2.424 2.424 0 0 0-.265.838 7.213 7.213 0 0 0-.064.976v5.135H710v-16.041z" transform="translate(-645.705 -680.756)"/>
                    <path id="패스_7281" d="M815.318 725.206h-2.8v3.437a6.423 6.423 0 0 0 .042.774 1.559 1.559 0 0 0 .191.6.964.964 0 0 0 .456.393 2.019 2.019 0 0 0 .817.138 5.483 5.483 0 0 0 .668-.053 1.13 1.13 0 0 0 .626-.244v2.652a4.814 4.814 0 0 1-1.1.255 10.156 10.156 0 0 1-1.125.064 6.113 6.113 0 0 1-1.485-.17 3.377 3.377 0 0 1-1.188-.541 2.53 2.53 0 0 1-.8-.965 3.3 3.3 0 0 1-.286-1.443v-4.9H807.3v-2.546h2.037V719.6h3.183v3.055h2.8z" transform="translate(-731.818 -701.344)"/>
                </g>
            </g>
        </g>
        <g id="그룹_12036" transform="translate(26.854)">
            <path id="패스_7311" fill="url(#linear-gradient-2)" stroke="#a369f4" stroke-miterlimit="10" d="M393.213 92.3a8.688 8.688 0 0 1-8.53-10.318.413.413 0 0 0-.407-.488h-12.358a6.726 6.726 0 0 0-6.707 6.706v40.21a6.726 6.726 0 0 0 6.707 6.706h16.234a6.726 6.726 0 0 0 6.707-6.706V92.732a.436.436 0 0 0-.436-.435z" transform="translate(-365.211 -81.492)"/>
            <g id="그룹_12033" transform="translate(11.163 53.673)">
                <rect id="사각형_1795" width="7.313" height="11.059" fill="#d3ad88" stroke="#a369f4" stroke-miterlimit="10" rx="1"/>
            </g>
            <path id="사각형_1796" fill="#fff115" stroke="#ddc914" stroke-miterlimit="10" d="M0 0H5.655V6.841H0z" transform="translate(6.442 41.063)"/>
            <path id="선_153" d="M0 0L0 6.665" class="cls-6" transform="translate(7.906 41.05)"/>
            <path id="선_154" d="M0 0L0 6.665" class="cls-6" transform="translate(10.633 41.05)"/>
            <rect id="사각형_1797" width="2.727" height="2.424" class="cls-6" rx="1.212" transform="translate(7.906 43.373)"/>
            <path id="선_155" d="M0 0L0 24.135" class="cls-7" transform="translate(11.188 13.633)"/>
            <path id="선_156" d="M0 0L0 24.135" class="cls-7" transform="translate(18.56 13.633)"/>
        </g>
    </g>
</svg>
