<svg xmlns="http://www.w3.org/2000/svg" width="23" height="7.625" viewBox="0 0 23 7.625">
    <defs>
        <style>
            .cls-2{fill:#fff}
        </style>
    </defs>
    <g id="그룹_12041" transform="translate(-22.017 -332.843)">
        <path id="패스_7312" fill="#003e92" d="M42.206 337.456c4.083-2.092 3.572-4.093-.583-4.505a37.208 37.208 0 0 0-15.574 2.358l-.632.271c-4.746 2.122-4.3 4.367-.06 4.777a35.785 35.785 0 0 0 16.273-2.613z"/>
        <path id="패스_7313" d="M351.512 380.948s-.78.063-.8-.566v-1.217s-.1-.67.777-.67c0 0 .569-.019.719.319 0 0 .074.09.055.464h-.606v-.191a.153.153 0 0 0-.158-.155s-.164.007-.164.136v1.258a.165.165 0 1 0 .33-.012v-.364h-.165v-.339h.778v.714a.5.5 0 0 1-.064.238.825.825 0 0 1-.087.114.808.808 0 0 1-.615.27" class="cls-2" transform="translate(-310.187 -43.083)"/>
        <path id="패스_7314" d="M303.929 380.113h-.606l.043 1.394h-.026l-.615-1.393h-.736v2.3h.6l-.036-1.4h.027l.637 1.4h.714z" class="cls-2" transform="translate(-264.208 -44.609)"/>
        <path id="패스_7315" d="M258.716 379.937h-.657v1.723s-.068.652.853.652c0 0 .8.01.8-.622v-1.753h-.642v1.732s.009.19-.167.19a.173.173 0 0 1-.185-.185z" class="cls-2" transform="translate(-222.752 -44.443)"/>
        <path id="패스_7316" d="M217.9 379.457v-.288s.046-.472-.712-.493c0 0-.6-.039-.768.282 0 0-.067.072-.067.321v.181a.6.6 0 0 0 .1.342.789.789 0 0 0 .208.185s.3.162.481.255c0 0 .182.1.158.269a.178.178 0 0 1-.19.163.168.168 0 0 1-.161-.174v-.2h-.644v.284s-.018.543.81.543c0 0 .791.016.828-.557v-.231a.6.6 0 0 0-.28-.536 2.142 2.142 0 0 0-.266-.141 2.117 2.117 0 0 1-.377-.215.219.219 0 0 1-.051-.25.156.156 0 0 1 .159-.088s.169.009.169.148v.2z" class="cls-2" transform="translate(-183.351 -43.252)"/>
        <path id="패스_7317" d="M158.8 380.107l-.051 2.3h.6l.007-1.731h.047l.317 1.73h.629l.313-1.73h.041l.014 1.73h.6l-.065-2.3h-1l-.2 1.257H160l-.194-1.257z" class="cls-2" transform="translate(-129.034 -44.604)"/>
        <path id="패스_7318" d="M116.986 382.37l-.4-2.3h-1.016l-.4 2.3h.643l.236-1.781h.053l.235 1.781z" class="cls-2" transform="translate(-87.913 -44.571)"/>
        <path id="패스_7319" d="M77.189 379.457v-.288s.046-.472-.712-.493c0 0-.6-.039-.768.282 0 0-.067.072-.067.321v.181a.6.6 0 0 0 .1.342.784.784 0 0 0 .208.185s.3.162.481.255c0 0 .182.1.158.269a.178.178 0 0 1-.19.163.168.168 0 0 1-.161-.174v-.2h-.644v.284s-.018.543.81.543c0 0 .791.016.828-.557v-.231a.6.6 0 0 0-.28-.536 2.15 2.15 0 0 0-.266-.141 2.116 2.116 0 0 1-.377-.215.22.22 0 0 1-.051-.25.157.157 0 0 1 .16-.088s.169.009.169.148v.2z" class="cls-2" transform="translate(-50.558 -43.252)"/>
    </g>
</svg>
