<svg xmlns="http://www.w3.org/2000/svg" width="21.667" height="21.667" viewBox="0 0 21.667 21.667">
    <defs>
        <style>
            .cls-2{fill:#c5c5c5}
        </style>
    </defs>
    <g id="ticket" opacity="0.4" transform="translate(0 -145.001)">
        <g id="그룹_95" transform="translate(0 145.001)">
            <path id="패스_431" d="M21.191 7.189l-1.62-1.607a2.483 2.483 0 0 1-3.5 0 2.38 2.38 0 0 1-.72-1.749 2.381 2.381 0 0 1 .72-1.749L14.466.477a1.661 1.661 0 0 0-2.327 0L.476 12.127a1.661 1.661 0 0 0 0 2.327l1.607 1.62a2.382 2.382 0 0 1 1.749-.72 2.38 2.38 0 0 1 1.749.72 2.484 2.484 0 0 1 0 3.5l1.62 1.62a1.661 1.661 0 0 0 2.327 0L21.191 9.516a1.661 1.661 0 0 0 0-2.327zm-3.484 2.572L9.76 17.707a.838.838 0 0 1-1.157 0l-4.655-4.654a.808.808 0 0 1 0-1.158l7.947-7.947a.839.839 0 0 1 1.158 0L17.707 8.6a.807.807 0 0 1 0 1.157z" class="cls-2" transform="translate(0 -.001)"/>
            <path id="패스_432" d="M121.007 113.639l4.064 4.063-7.355 7.355-4.063-4.063z" class="cls-2" transform="translate(-108.533 -108.521)"/>
        </g>
    </g>
</svg>
