<svg xmlns="http://www.w3.org/2000/svg" id="noun_Writing_1359773" width="25.727" height="25.72" viewBox="0 0 25.727 25.72">
    <defs>
        <style>
            .cls-1{fill:#66629b}
        </style>
    </defs>
    <path id="패스_7349" d="M53.148 11.467a3.488 3.488 0 0 0-4.925 0l-10.816 10.8a.975.975 0 0 0-.286.686v3.508a.975.975 0 0 0 .975.975l3.576.049a.975.975 0 0 0 .676-.276l10.8-10.809a3.492 3.492 0 0 0 0-4.935zm-1.378 3.557L41.259 25.532l-2.188-.032v-2.137l10.524-10.517a1.538 1.538 0 0 1 2.175 0 1.541 1.541 0 0 1 0 2.178z" class="cls-1" transform="translate(-28.443 -10.449)"/>
    <path id="패스_7350" d="M13.356 39.4h18.317a2.926 2.926 0 0 0 2.927-2.93v-9.156a.975.975 0 0 0-1.951 0v9.156a.975.975 0 0 1-.975.975H13.356a.975.975 0 0 1-.975-.975V18.156a.975.975 0 0 1 .975-.975h9.158a.975.975 0 1 0 0-1.951h-9.158a2.926 2.926 0 0 0-2.926 2.926V36.47a2.926 2.926 0 0 0 2.926 2.93z" class="cls-1" transform="translate(-10.43 -13.676)"/>
</svg>
