<svg width="20" height="20" xmlns="http://www.w3.org/2000/svg">
    <g fill="none" fill-rule="evenodd">
        <path d="M0 0h20v20H0z"/>
        <path d="M10 5.833a.836.836 0 0 0-.833.834v2.5h-2.5a.836.836 0 0 0-.834.833c0 .458.375.833.834.833h2.5v2.5c0 .459.375.834.833.834a.836.836 0 0 0 .833-.834v-2.5h2.5a.836.836 0 0 0 .834-.833.836.836 0 0 0-.834-.833h-2.5v-2.5A.836.836 0 0 0 10 5.833zm0-4.166A8.336 8.336 0 0 0 1.667 10c0 4.6 3.733 8.333 8.333 8.333S18.333 14.6 18.333 10 14.6 1.667 10 1.667zm0 15A6.676 6.676 0 0 1 3.333 10 6.676 6.676 0 0 1 10 3.333 6.676 6.676 0 0 1 16.667 10 6.676 6.676 0 0 1 10 16.667z" fill="#806EFF" fill-rule="nonzero"/>
    </g>
</svg>
