<svg xmlns="http://www.w3.org/2000/svg" width="40" height="40" viewBox="0 0 40 40">
    <defs>
        <style>
            .cls-1{fill:#9c93ce}
        </style>
    </defs>
    <g id="Icon_ionic-ios-alarm" transform="translate(-4.5 -4.5)">
        <g id="그룹_12321" transform="translate(4.5 4.5)">
            <path id="패스_7490" d="M28.545 4.51c-.135-.01-.271-.01-.406-.01h-.021a7.648 7.648 0 0 0-4.647 1.573.753.753 0 0 0-.281.542.734.734 0 0 0 .24.563l9.357 8.388a.747.747 0 0 0 .479.188h.042a.707.707 0 0 0 .5-.25 5.128 5.128 0 0 0 1.7-3.813 7.266 7.266 0 0 0-6.963-7.181z" class="cls-1" transform="translate(4.495 -4.5)"/>
            <path id="패스_7491" d="M4.5 11.689A5.128 5.128 0 0 0 6.2 15.5a.707.707 0 0 0 .5.25h.04a.7.7 0 0 0 .479-.188l9.367-8.388a.716.716 0 0 0-.042-1.1A7.648 7.648 0 0 0 11.9 4.5h-.021c-.135 0-.271 0-.406.01A7.275 7.275 0 0 0 4.5 11.689z" class="cls-1" transform="translate(-4.5 -4.5)"/>
        </g>
        <path id="패스_7492" d="M37.916 36.966a18.333 18.333 0 1 0-27.916 0l-3.614 3.7a1.541 1.541 0 0 0 .031 2.251 1.766 1.766 0 0 0 1.187.5 1.626 1.626 0 0 0 1.167-.531l3.6-3.595a18.321 18.321 0 0 0 23.166 0l3.5 3.595a1.7 1.7 0 0 0 1.2.531 1.716 1.716 0 0 0 1.167-.5 1.546 1.546 0 0 0 .135-2.251zM25.416 25.3a1.463 1.463 0 0 1-1.458 1.459h-8.542a1.459 1.459 0 0 1 0-2.917H22.5V13.21a1.458 1.458 0 1 1 2.917 0z" class="cls-1" transform="translate(.542 1.084)"/>
    </g>
</svg>
