<svg xmlns="http://www.w3.org/2000/svg" width="26.167" height="23.848" viewBox="0 0 26.167 23.848">
    <defs>
        <style>
            .cls-1{fill:#66629b}
        </style>
    </defs>
    <g id="noun_Photo_2059577" transform="translate(54.5 -164.552)">
        <g id="그룹_12138" transform="translate(-54.5 164.552)">
            <path id="패스_7351" d="M35.089 43.8l-4.324-5.589a1.29 1.29 0 0 0-2.093 0l-4.6 5.931-2.093-2.577a1.174 1.174 0 0 0-1.873 0l-3.305 4.1v3.292h18.261V43.8z" class="cls-1" transform="translate(-12.861 -29.578)"/>
            <ellipse id="타원_627" cx="1.901" cy="2.143" class="cls-1" rx="1.901" ry="2.143" transform="translate(4.379 4.999)"/>
            <path id="패스_7352" d="M27.482 11.6H3.684A1.257 1.257 0 0 0 2.5 12.935v21.178a1.257 1.257 0 0 0 1.184 1.335h23.8a1.257 1.257 0 0 0 1.184-1.335V12.935a1.257 1.257 0 0 0-1.186-1.335zM26.3 32.778H4.869V14.271H26.3z" class="cls-1" transform="translate(-2.5 -11.6)"/>
        </g>
    </g>
</svg>
