<svg xmlns="http://www.w3.org/2000/svg" width="49" height="61.731" viewBox="0 0 49 61.731">
    <defs>
        <style>
            .cls-2{fill:#dc000c}
        </style>
    </defs>
    <g id="그룹_12205" transform="translate(-250 -261.269)">
        <g id="그룹_12204" transform="translate(255 261.269)">
            <path id="패스_7357" fill="#fff" d="M5.477.048L21.284 0a5.373 5.373 0 0 1 5.4 5.4l-.052 15.8a5.452 5.452 0 0 1-5.432 5.432l-15.8.048a5.373 5.373 0 0 1-5.4-5.4L.048 5.477A5.452 5.452 0 0 1 5.477.048z" transform="rotate(-44.999 22.773 9.432)"/>
            <g id="그룹_2187" transform="translate(13.967 8.984)">
                <g id="그룹_2185" transform="translate(0 17.598)">
                    <path id="패스_7287" d="M196.363 291.779a.959.959 0 1 1 .041 0z" class="cls-2" transform="translate(-195.4 -289.85)"/>
                </g>
                <g id="그룹_2186" transform="translate(.351)">
                    <path id="패스_7288" d="M200.072 263.922a1.745 1.745 0 0 0-1.3.506c-.739.736-1.128 2.252-1.093 4.271.042 2.49.635 7.374 2.592 9.888a4.354 4.354 0 0 0 1.015.967 2.255 2.255 0 0 0 1.336.45 2.966 2.966 0 0 0 .523-.05 7.069 7.069 0 0 0 3.575-3.182.865.865 0 1 1 1.464.921 8.483 8.483 0 0 1-4.671 3.951.224.224 0 0 1-.04.009 4.767 4.767 0 0 1-.858.081 3.993 3.993 0 0 1-2.282-.737 6.09 6.09 0 0 1-1.426-1.348c-2.757-3.54-2.945-10.177-2.958-10.922-.029-1.766.225-4.159 1.6-5.528a3.435 3.435 0 0 1 2.507-1.006h.16a3.439 3.439 0 0 1 2.51 1.006c1.38 1.369 1.633 3.763 1.6 5.528a17.85 17.85 0 0 1-2.277 8.6.865.865 0 0 1-1.485-.887 14.991 14.991 0 0 0 2.032-7.742c.034-2.02-.354-3.537-1.093-4.272a1.741 1.741 0 0 0-1.293-.506z" class="cls-2" transform="translate(-195.952 -262.194)"/>
                </g>
            </g>
        </g>
        <text id="_롯데카드_서울스카이_전망대_종일_" fill="#fff" font-family="AppleSDGothicNeo-Bold, Apple SD Gothic Neo" font-size="14px" font-weight="700" transform="translate(250 319)">
            <tspan x="0" y="0">롯데카드</tspan>
        </text>
    </g>
</svg>
