<svg xmlns="http://www.w3.org/2000/svg" width="40" height="40" viewBox="0 0 40 40">
    <defs>
        <style>
            .cls-2{fill:#fff}
        </style>
    </defs>
    <g id="Change_image_button" transform="translate(-228.376 -151)">
        <g id="그룹_1048" transform="translate(7.376 -56)">
            <circle id="타원_4" cx="20" cy="20" r="20" fill="#1a1824" opacity="0.8" transform="translate(221 207)"/>
            <g id="_112-photo-camera-1" transform="translate(232.111 220.333)">
                <g id="그룹_1045">
                    <g id="그룹_1044">
                        <path id="패스_1470" d="M16.79 53.57h-3.523l-.767-1.99a.593.593 0 0 0-.553-.38h-6.12a.593.593 0 0 0-.553.38l-.763 1.99H.988a.989.989 0 0 0-.988.988v9.877a.989.989 0 0 0 .988.988h15.8a.989.989 0 0 0 .988-.988v-9.877a.989.989 0 0 0-.986-.988zm-.2 10.667H1.185v-9.481h3.734a.593.593 0 0 0 .553-.38l.763-1.99h5.309l.763 1.99a.593.593 0 0 0 .553.38h3.733v9.482z" class="cls-2" transform="translate(0 -51.2)"/>
                    </g>
                </g>
                <g id="그룹_1047" transform="translate(4.721 3.654)">
                    <g id="그룹_1046">
                        <path id="패스_1471" d="M140.132 156.439a4.168 4.168 0 1 0 4.168 4.168 4.173 4.173 0 0 0-4.168-4.168zm0 7.151a2.983 2.983 0 1 1 2.983-2.983 2.986 2.986 0 0 1-2.983 2.983z" class="cls-2" transform="translate(-135.964 -156.439)"/>
                    </g>
                </g>
            </g>
        </g>
    </g>
</svg>
