<svg width="20" height="20" xmlns="http://www.w3.org/2000/svg">
    <g fill="none" fill-rule="evenodd">
        <path d="M0 0h20v20H0z"/>
        <path d="M12.5 16.667H4.167V5.833A.836.836 0 0 0 3.333 5a.836.836 0 0 0-.833.833v10.834c0 .916.75 1.666 1.667 1.666H12.5a.836.836 0 0 0 .833-.833.836.836 0 0 0-.833-.833zm4.167-3.334v-10c0-.916-.75-1.666-1.667-1.666H7.5c-.917 0-1.667.75-1.667 1.666v10c0 .917.75 1.667 1.667 1.667H15c.917 0 1.667-.75 1.667-1.667zm-1.667 0H7.5v-10H15v10z" fill="#FFF" fill-rule="nonzero"/>
    </g>
</svg>
