<svg width="60" height="60" xmlns="http://www.w3.org/2000/svg">
    <g fill="none" fill-rule="evenodd">
        <path d="M0 0h60v60H0z"/>
        <path d="M50 30c0-1.9 1.075-3.55 2.65-4.4 1.5-.825 2.35-2.525 2.35-4.25V15c0-2.75-2.25-5-5-5H10a4.972 4.972 0 0 0-4.975 4.975v6.375c0 1.725.825 3.425 2.35 4.225C8.95 26.45 10 28.1 10 30s-1.075 3.575-2.65 4.4C5.85 35.225 5 36.925 5 38.65V45c0 2.75 2.25 5 5 5h40c2.75 0 5-2.25 5-5v-6.35c0-1.725-.85-3.425-2.35-4.25C51.075 33.55 50 31.9 50 30zM36.25 40.25l-6.25-4-6.25 4.025c-.95.6-2.175-.275-1.875-1.375l1.875-7.2L18 27c-.875-.725-.425-2.15.725-2.225l7.4-.425 2.7-6.875c.425-1.05 1.925-1.05 2.325 0l2.7 6.9 7.4.425c1.125.075 1.6 1.5.725 2.225l-5.75 4.7 1.9 7.15c.3 1.125-.925 2-1.875 1.375z" fill="#806EFF" fill-rule="nonzero"/>
    </g>
</svg>
