<svg width="127" height="116" xmlns="http://www.w3.org/2000/svg" xmlns:xlink="http://www.w3.org/1999/xlink">
    <defs>
        <linearGradient x1="77.53%" y1="-3.534%" x2="22.45%" y2="103.516%" id="d">
            <stop stop-color="#AB44FF" offset="0%"/>
            <stop stop-color="#7EB4FF" offset="100%"/>
        </linearGradient>
        <linearGradient x1="57.738%" y1="-3.534%" x2="42.256%" y2="103.516%" id="f">
            <stop stop-color="#916DAE" offset="0%"/>
            <stop stop-color="#BACEEA" offset="100%"/>
        </linearGradient>
        <path id="a" d="M0 0h14.249v17.455H0z"/>
        <path d="M.618.62A2.042 2.042 0 0 0 0 2.115C0 2.7.206 3.197.618 3.61c.411.414.908.62 1.489.62.582 0 1.078-.206 1.49-.62.411-.413.617-.911.617-1.495 0-.583-.206-1.082-.617-1.495A2.026 2.026 0 0 0 2.107 0C1.526 0 1.029.207.617.62" id="c"/>
    </defs>
    <g fill="none" fill-rule="evenodd">
        <g transform="translate(0 92.364)">
            <mask id="b" fill="#fff">
                <use xlink:href="#a"/>
            </mask>
            <path d="M3.333 14.352h2.294c.435 0 1.28 0 1.884-.122 2.27-.46 3.26-3.006 3.26-5.503 0-2.618-1.063-5.066-3.26-5.503-.604-.12-1.45-.12-1.884-.12H3.333v11.248zM0 17.455V0h5.627c.266 0 1.28 0 2.077.097 4.202.509 6.545 4.194 6.545 8.63 0 4.437-2.343 8.122-6.545 8.63-.797.098-1.811.098-2.077.098H0z" fill="#231916" mask="url(#b)"/>
        </g>
        <path d="M19.393 101.745h5.748c-.23-1.77-1.051-2.52-2.633-2.52-1.763 0-2.777.86-3.115 2.52zm-.085 2.449c.242 1.867 1.28 2.909 3.055 2.909 1.28 0 2.222-.582 2.705-1.648l3.285.945c-.99 2.4-3.285 3.782-5.796 3.782-4.01 0-6.787-2.812-6.787-6.74 0-4.29 2.73-7.078 6.593-7.078 4.106 0 6.497 3.078 6.098 7.83h-9.153zM38.447 103.818c-2.197.376-3.091.558-3.84.837-.966.387-1.352.848-1.352 1.502 0 .897.7 1.431 1.835 1.431 1.812 0 2.754-1.188 3.02-1.746.277-.57.325-1.394.337-2.024m3.26-2v8h-2.873v-1.6c-1.16 1.382-2.44 1.964-4.444 1.964-2.802 0-4.347-1.794-4.347-3.976 0-1.818.748-3.176 2.85-3.951 1.255-.461 3.127-.74 5.578-1.104-.132-1.224-.845-1.781-2.39-1.781-.967 0-2.198.412-2.609 1.6l-2.97-.946c.652-2.157 2.439-3.66 5.578-3.66 2.295 0 4.179.63 5.096 2.375.507.97.532 1.891.532 3.08M43.953 109.818h3.285V92h-3.285zM49.484 109.818h3.284V97.51h-3.284zM64.554 103.273c0-2.376-.821-3.976-2.874-3.976-2.198 0-3.188 1.794-3.188 3.976 0 2.206.942 3.976 3.067 3.976 2.198 0 2.995-1.6 2.995-3.976zm0-6.546h2.874v13.988c0 .655-.049 1.212-.194 1.77-.627 2.4-3.042 3.515-5.917 3.515-2.221 0-4.202-1.14-5.192-2.836l3.043-1.48c.41.777 1.256 1.189 2.174 1.189 1.473 0 2.85-.752 2.801-2.206v-1.322c-.845.534-1.884.837-3.115.837-3.599 0-6.014-2.982-6.014-6.91 0-4 2.44-6.908 6.183-6.908 1.352 0 2.475.4 3.357 1.09v-.727zM81.894 102.473v7.345H78.56v-6.182c0-1.188 0-4.194-2.802-4.194-1.134 0-2.777.485-2.777 3.734v6.642H69.65V92.364h2.923v5.709c.942-1.055 2.354-1.734 4.226-1.734 5.096 0 5.096 5.043 5.096 6.134M88.438 99.273v4.8c0 1.018-.048 1.866.266 2.351.58.921 1.956.873 3.502.655v2.74c-2.705.508-5.458.29-6.52-1.625-.653-1.188-.532-2.352-.532-3.927v-4.994h-2.222v-2.546h2.222v-3.636h3.284v3.636h3.768v2.546h-3.768zM95.9 109.818V92.364h1.63l6.835 14.678 6.799-14.678h1.654v17.442h-1.69V96.34l-6.195 13.48h-1.147l-6.183-13.48v13.48zM116.755 102.279h8.38c-.278-2.825-1.667-4.279-4.094-4.279-2.511 0-4.009 1.527-4.286 4.279zm-.037 1.49c.145 2.995 1.679 4.704 4.275 4.704 1.86 0 3.284-.885 4.094-2.522l1.654.643c-1.039 2.29-3.152 3.588-5.675 3.588-3.804 0-6.243-2.703-6.243-6.849 0-4.29 2.402-6.97 6.17-6.97 3.864 0 6.134 2.789 6.001 7.407h-10.276z" fill="#231916"/>
        <g transform="translate(49 92.017)">
            <mask id="e" fill="#fff">
                <use xlink:href="#c"/>
            </mask>
            <path d="M.618.62A2.042 2.042 0 0 0 0 2.115C0 2.7.206 3.197.618 3.61c.411.414.908.62 1.489.62.582 0 1.078-.206 1.49-.62.411-.413.617-.911.617-1.495 0-.583-.206-1.082-.617-1.495A2.026 2.026 0 0 0 2.107 0C1.526 0 1.029.207.617.62" fill="url(#d)" mask="url(#e)"/>
        </g>
        <g>
            <path d="M22.507 0c.298 0 .381.275.357.6a34.11 34.11 0 0 0-.06 2.02c-.011 5.93 4.59 10.734 10.253 10.734h1.43c.287 0 .513.237.513.537v44.093c0 4.556-3.564 8.287-7.916 8.287H7.916C3.564 66.271 0 62.54 0 57.984V8.287C0 3.732 3.564 0 7.916 0z" fill="url(#f)" fill-rule="nonzero" transform="translate(46 2)"/>
            <path d="M79.057 15.354c-5.663 0-10.264-4.805-10.252-10.733 0-.562.012-1.186.06-2.022.023-.324-.06-.599-.358-.599H53.916C49.564 2 46 5.732 46 10.287v49.697c0 4.556 3.564 8.287 7.916 8.287h19.168c4.352 0 7.916-3.731 7.916-8.287V15.891c0-.3-.226-.537-.513-.537h-1.43z" stroke="#876EAF" stroke-width="2.369"/>
            <path d="M66.373 82h-5.77c-.787 0-1.43-.674-1.43-1.498v-10.67c0-.824.643-1.498 1.43-1.498h5.77c.787 0 1.43.674 1.43 1.498v10.67c0 .824-.643 1.498-1.43 1.498" fill="#CFAA86" fill-rule="nonzero"/>
            <path d="M66.373 82h-5.77c-.787 0-1.43-.674-1.43-1.498v-10.67c0-.824.643-1.498 1.43-1.498h5.77c.787 0 1.43.674 1.43 1.498v10.67c0 .824-.643 1.498-1.43 1.498z" stroke="#876EAF" stroke-width="2.244"/>
            <path d="M58.314 61.195h-2.753c-1.085 0-1.967-.924-1.967-2.06v-4.342c0-1.136.882-2.06 1.967-2.06h2.753c1.085 0 1.967.924 1.967 2.06v4.343c0 1.135-.882 2.059-1.967 2.059" fill="#F5E831" fill-rule="nonzero"/>
            <path d="M58.314 61.195h-2.753c-1.085 0-1.967-.924-1.967-2.06v-4.342c0-1.136.882-2.06 1.967-2.06h2.753c1.085 0 1.967.924 1.967 2.06v4.343c0 1.135-.882 2.059-1.967 2.059zM55.4 52.733v8.237M58.618 52.733v8.237" stroke="#D4C226" stroke-width="1.249"/>
            <path d="M57.122 58.6h-.357c-.787 0-1.43-.675-1.43-1.499 0-.823.643-1.497 1.43-1.497h.357c.787 0 1.43.674 1.43 1.497 0 .824-.643 1.498-1.43 1.498z" stroke="#D4C226" stroke-width="1.249"/>
            <path stroke="#8169AC" stroke-width="2.369" stroke-linecap="round" stroke-linejoin="round" d="M59.274 18.849v29.828M67.976 18.849v29.828"/>
        </g>
    </g>
</svg>
