<?xml version="1.0" encoding="utf-8"?>
<!-- Generator: Adobe Illustrator 25.2.3, SVG Export Plug-In . SVG Version: 6.00 Build 0)  -->
<svg version="1.1" id="레이어_1" xmlns="http://www.w3.org/2000/svg" xmlns:xlink="http://www.w3.org/1999/xlink" x="0px"
	 y="0px" viewBox="0 0 900 900" style="enable-background:new 0 0 900 900;" xml:space="preserve">
<style type="text/css">
	.st0{clip-path:url(#SVGID_2_);fill:url(#SVGID_3_);}
	.st1{fill:none;stroke:#876EAF;stroke-width:19;stroke-miterlimit:10;}
	.st2{fill:#CFAA86;}
	.st3{fill:none;stroke:#876EAF;stroke-width:18;stroke-miterlimit:10;}
	.st4{fill:#F5E831;}
	.st5{fill:none;stroke:#D4C226;stroke-width:8;stroke-miterlimit:10;}
	.st6{fill:none;stroke:#8169AC;stroke-width:19;stroke-linecap:round;stroke-linejoin:round;stroke-miterlimit:10;}
	.st7{clip-path:url(#SVGID_5_);fill:url(#SVGID_6_);}
</style>
<g>
	<g>
		<path d="M38.3,844.7V733.2h36.1c1.7,0,8.2,0,13.3,0.6c27,3.3,42,26.8,42,55.2c0,28.4-15,51.9-42,55.2c-5.1,0.6-11.6,0.6-13.3,0.6
			H38.3z M59.7,824.9h14.7c2.8,0,8.2,0,12.1-0.8c14.6-2.9,20.9-19.2,20.9-35.2c0-16.7-6.8-32.4-20.9-35.2c-3.9-0.8-9.3-0.8-12.1-0.8
			H59.7V824.9z"/>
		<path d="M162.3,808.8c1.5,11.9,8.2,18.6,19.6,18.6c8.2,0,14.3-3.7,17.4-10.5l21.1,6c-6.4,15.3-21.1,24.2-37.2,24.2
			c-25.7,0-43.6-18-43.6-43.1c0-27.4,17.5-45.3,42.3-45.3c26.3,0,41.7,19.7,39.1,50.1H162.3z M162.8,793.1h36.9
			c-1.5-11.3-6.7-16.1-16.9-16.1C171.5,777,165,782.5,162.8,793.1z"/>
		<path d="M306,793.6v51.1h-18.4v-10.2c-7.4,8.8-15.7,12.6-28.5,12.6c-18,0-27.9-11.5-27.9-25.4c0-11.6,4.8-20.3,18.3-25.3
			c8.1-2.9,20.1-4.7,35.8-7.1c-0.9-7.8-5.4-11.4-15.3-11.4c-6.2,0-14.1,2.6-16.7,10.2l-19.1-6c4.2-13.8,15.7-23.4,35.8-23.4
			c14.7,0,26.8,4,32.7,15.2C305.9,780.1,306,786,306,793.6z M285.1,806.4c-14.1,2.4-19.8,3.6-24.6,5.3c-6.2,2.5-8.7,5.4-8.7,9.6
			c0,5.7,4.5,9.1,11.8,9.1c11.6,0,17.7-7.6,19.4-11.2C284.7,815.7,285,810.4,285.1,806.4z"/>
		<path d="M320.4,844.7V730.8h21.1v113.9H320.4z"/>
		<rect x="355.9" y="766.1" width="21.1" height="78.7"/>
		<path d="M452.6,761.1h18.4v89.4c0,4.2-0.3,7.8-1.2,11.3c-4,15.3-19.5,22.5-38,22.5c-14.3,0-27-7.3-33.3-18.1l19.5-9.5
			c2.6,5,8.1,7.6,14,7.6c9.5,0,18.3-4.8,18-14.1v-8.4c-5.4,3.4-12.1,5.3-20,5.3c-23.1,0-38.6-19.1-38.6-44.2
			c0-25.6,15.7-44.2,39.7-44.2c8.7,0,15.9,2.6,21.5,7V761.1z M452.6,802.9c0-15.2-5.3-25.4-18.4-25.4c-14.1,0-20.5,11.5-20.5,25.4
			c0,14.1,6,25.4,19.7,25.4C447.5,828.3,452.6,818.1,452.6,802.9z"/>
		<path d="M563.9,797.8v47h-21.4v-39.5c0-7.6,0-26.8-18-26.8c-7.3,0-17.8,3.1-17.8,23.9v42.5h-21.4V733.2h18.8v36.5
			c6-6.7,15.1-11.1,27.1-11.1C563.9,758.6,563.9,790.8,563.9,797.8z"/>
		<path d="M605.9,777.3V808c0,6.5-0.3,11.9,1.7,15c3.7,5.9,12.6,5.6,22.5,4.2v17.5c-17.4,3.3-35,1.9-41.8-10.4
			c-4.2-7.6-3.4-15-3.4-25.1v-31.9h-14.3v-16.3h14.3v-23.2h21.1v23.2h24.2v16.3H605.9z"/>
		<path d="M653.8,844.7V733.2h10.5l43.9,93.9l43.6-93.9h10.6v111.5h-10.9v-86.1l-39.8,86.2h-7.4l-39.7-86.2v86.2H653.8z"/>
		<path d="M787.4,806.1c0.9,19.1,10.8,30.1,27.4,30.1c11.9,0,21.1-5.7,26.3-16.1l10.6,4.1c-6.7,14.6-20.2,22.9-36.4,22.9
			c-24.4,0-40.1-17.3-40.1-43.8c0-27.4,15.4-44.6,39.6-44.6c24.8,0,39.4,17.8,38.5,47.4H787.4z M787.7,796.5h53.8
			c-1.8-18.1-10.7-27.4-26.3-27.4C799.1,769.2,789.5,779,787.7,796.5z"/>
	</g>
	<g>
		<g>
			<defs>
				<path id="SVGID_1_" d="M363.2,27.6c-36.5,0-66.4,29.9-66.4,66.4v398.2c0,36.5,29.9,66.4,66.4,66.4H524
					c36.5,0,66.4-29.9,66.4-66.4V138.9c0-2.4-1.9-4.3-4.3-4.3l-12,0c-47.5,0-86-38.5-86-86c0-5.5,0.5-10.9,1.5-16.2
					c0.5-2.5-1.5-4.8-4-4.8H363.2z"/>
			</defs>
			<clipPath id="SVGID_2_">
				<use xlink:href="#SVGID_1_"  style="overflow:visible;"/>
			</clipPath>
			
				<linearGradient id="SVGID_3_" gradientUnits="userSpaceOnUse" x1="388.1306" y1="1412.292" x2="389.2011" y2="1411.9851" gradientTransform="matrix(0 531 531 0 -749402 -206088.5156)">
				<stop  offset="0" style="stop-color:#916DAE"/>
				<stop  offset="1" style="stop-color:#BACEEA"/>
			</linearGradient>
			<rect x="296.8" y="27.6" class="st0" width="293.6" height="531"/>
		</g>
		<path class="st1" d="M574.1,134.6c-47.5,0-86.1-38.5-86-86c0-4.5,0.1-9.5,0.5-16.2c0.2-2.6-0.5-4.8-3-4.8H363.2
			c-36.5,0-66.4,29.9-66.4,66.4v398.2c0,36.5,29.9,66.4,66.4,66.4H524c36.5,0,66.4-29.9,66.4-66.4V138.9c0-2.4-1.9-4.3-4.3-4.3
			L574.1,134.6z"/>
		<path class="st2" d="M467.7,668.6h-48.4c-6.6,0-12-5.4-12-12v-85.5c0-6.6,5.4-12,12-12h48.4c6.6,0,12,5.4,12,12v85.5
			C479.7,663.2,474.3,668.6,467.7,668.6"/>
		<path class="st3" d="M467.7,668.6h-48.4c-6.6,0-12-5.4-12-12v-85.5c0-6.6,5.4-12,12-12h48.4c6.6,0,12,5.4,12,12v85.5
			C479.7,663.2,474.3,668.6,467.7,668.6z"/>
		<path class="st4" d="M400.1,501.9H377c-9.1,0-16.5-7.4-16.5-16.5v-34.8c0-9.1,7.4-16.5,16.5-16.5h23.1c9.1,0,16.5,7.4,16.5,16.5
			v34.8C416.6,494.5,409.2,501.9,400.1,501.9"/>
		<path class="st5" d="M400.1,501.9H377c-9.1,0-16.5-7.4-16.5-16.5v-34.8c0-9.1,7.4-16.5,16.5-16.5h23.1c9.1,0,16.5,7.4,16.5,16.5
			v34.8C416.6,494.5,409.2,501.9,400.1,501.9z"/>
		<line class="st5" x1="375.1" y1="434.1" x2="375.1" y2="500.1"/>
		<line class="st5" x1="402.1" y1="434.1" x2="402.1" y2="500.1"/>
		<path class="st5" d="M390.1,481.1h-3c-6.6,0-12-5.4-12-12c0-6.6,5.4-12,12-12h3c6.6,0,12,5.4,12,12
			C402.1,475.7,396.7,481.1,390.1,481.1z"/>
		<line class="st6" x1="407.6" y1="162.6" x2="407.6" y2="401.6"/>
		<line class="st6" x1="480.6" y1="162.6" x2="480.6" y2="401.6"/>
	</g>
	<g>
		<defs>
			<path id="SVGID_4_" d="M356.8,734.9c-2.6,2.6-4,5.8-4,9.6c0,3.7,1.3,6.9,4,9.6c2.6,2.6,5.8,4,9.6,4c3.7,0,6.9-1.3,9.6-4
				c2.6-2.6,4-5.8,4-9.6c0-3.7-1.3-6.9-4-9.6c-2.6-2.6-5.8-4-9.6-4C362.6,730.9,359.4,732.3,356.8,734.9"/>
		</defs>
		<clipPath id="SVGID_5_">
			<use xlink:href="#SVGID_4_"  style="overflow:visible;"/>
		</clipPath>
		
			<linearGradient id="SVGID_6_" gradientUnits="userSpaceOnUse" x1="371.0851" y1="1427.4897" x2="371.927" y2="1427.4897" gradientTransform="matrix(32.1245 0 0 -32.1245 -11568.1123 46601.8711)">
			<stop  offset="0" style="stop-color:#916DAE"/>
			<stop  offset="1" style="stop-color:#BACEEA"/>
		</linearGradient>
		<rect x="352.8" y="730.9" class="st7" width="27" height="27"/>
	</g>
</g>
</svg>
