<svg xmlns="http://www.w3.org/2000/svg" width="32" height="32" viewBox="0 0 32 32">
    <rect width="32" height="32" fill="#9c93ce" rx="10"/>
    <path fill="#fff" d="M8.333 16.667a8.333 8.333 0 1 1 8.333-8.333 8.343 8.343 0 0 1-8.333 8.333zm0-15.833a7.5 7.5 0 1 0 6.495 3.75A7.508 7.508 0 0 0 8.333.833zM10.417 12.5H7.083a.417.417 0 0 1 0-.833h1.25V7.5h-1.25a.417.417 0 0 1 0-.833H8.75a.417.417 0 0 1 .416.416v4.584h1.25a.417.417 0 0 1 0 .833zM8.75 5.833h-.833a.417.417 0 0 1-.417-.417v-.833a.417.417 0 0 1 .417-.416h.833a.417.417 0 0 1 .416.416v.833a.417.417 0 0 1-.416.417z" transform="translate(7.667 7.667)"/>
</svg>
