<svg width="44" height="44" xmlns="http://www.w3.org/2000/svg" xmlns:xlink="http://www.w3.org/1999/xlink">
    <defs>
        <path id="a" d="M0 0h44v43.733H0z"/>
    </defs>
    <g fill="none" fill-rule="evenodd">
        <g>
            <mask id="b" fill="#fff">
                <use xlink:href="#a"/>
            </mask>
            <path d="M44 22C44 9.847 34.15-.003 21.999-.003 9.848-.002-.003 9.848-.003 22c0 10.981 8.046 20.083 18.564 21.734V28.359h-5.586v-6.36h5.586v-4.847c0-5.514 3.285-8.56 8.31-8.56 2.407 0 4.925.43 4.925.43v5.414h-2.774c-2.733 0-3.586 1.696-3.586 3.436V22h6.102l-.975 6.36h-5.127v15.374C35.954 42.083 44 32.98 44 21.999" fill="#1877F2" mask="url(#b)"/>
        </g>
        <path d="m30.563 28.359.975-6.36h-6.102v-4.127c0-1.74.853-3.436 3.586-3.436h2.774V9.022s-2.518-.43-4.925-.43c-5.025 0-8.31 3.046-8.31 8.56V22h-5.586v6.36h5.586v15.374a22.166 22.166 0 0 0 6.875 0V28.359h5.127" fill="#FFF"/>
    </g>
</svg>
