<svg xmlns="http://www.w3.org/2000/svg" id="그룹_1223" width="20.333" height="20.748" viewBox="0 0 20.333 20.748">
    <defs>
        <clipPath id="clip-path">
            <path id="패스_1536" d="M18.959-8.514a11.92 11.92 0 0 0-.189-2.122H9v4.013h5.583a4.772 4.772 0 0 1-2.07 3.131v2.6h3.353a10.118 10.118 0 0 0 3.093-7.625z" class="cls-1" transform="translate(-9 10.636)"/>
        </clipPath>
        <clipPath id="clip-path-2">
            <path id="패스_1535" fill="none" d="M-15 22.329h222.468V-33H-15z" transform="translate(15 33)"/>
        </clipPath>
        <clipPath id="clip-path-3">
            <path id="패스_1539" d="M10.228 1.113A9.9 9.9 0 0 0 17.094-1.4L13.741-4a6.235 6.235 0 0 1-3.513.99 6.183 6.183 0 0 1-5.8-4.277H.957V-4.6a10.37 10.37 0 0 0 9.271 5.715z" class="cls-1" transform="translate(-.957 7.29)"/>
        </clipPath>
        <clipPath id="clip-path-5">
            <path id="패스_1542" d="M4.569-6.412a6.236 6.236 0 0 1-.325-1.971 6.236 6.236 0 0 1 .325-1.971v-2.688H1.1A10.37 10.37 0 0 0 0-8.383a10.37 10.37 0 0 0 1.1 4.659l3.469-2.688z" class="cls-1" transform="translate(0 13.042)"/>
        </clipPath>
        <clipPath id="clip-path-7">
            <path id="패스_1545" d="M10.228-13.874a5.6 5.6 0 0 1 3.966 1.551l2.975-2.977a9.97 9.97 0 0 0-6.941-2.7 10.37 10.37 0 0 0-9.271 5.715L4.423-9.6a6.183 6.183 0 0 1 5.8-4.277z" class="cls-1" transform="translate(-.957 18)"/>
        </clipPath>
        <style>
            .cls-1{fill:none;clip-rule:evenodd}.cls-4{clip-path:url(#clip-path-2)}
        </style>
    </defs>
    <g id="그룹_1216" clip-path="url(#clip-path)" transform="translate(10.374 8.488)">
        <g id="그룹_1215" class="cls-4" transform="translate(-27.664 -25.778)">
            <path id="패스_1534" fill="#4184f3" d="M4-15.636h21.486V5.637H4z" transform="translate(17.901 35.651)"/>
        </g>
    </g>
    <g id="그룹_1218" clip-path="url(#clip-path-3)" transform="translate(1.103 12.345)">
        <g id="그룹_1217" class="cls-4" transform="translate(-18.394 -29.636)">
            <path id="패스_1537" fill="#34a753" d="M-4.043-12.29h27.664V7.64H-4.043z" transform="translate(16.673 36.162)"/>
        </g>
    </g>
    <g id="그룹_1220" clip-path="url(#clip-path-5)" transform="translate(0 5.715)">
        <g id="그룹_1219" class="cls-4" transform="translate(-17.29 -23.006)">
            <path id="패스_1540" fill="#fabb04" d="M-5-18.042h16.1V2.8H-5z" transform="translate(16.527 35.284)"/>
        </g>
    </g>
    <g id="그룹_1222" clip-path="url(#clip-path-7)" transform="translate(1.103)">
        <g id="그룹_1221" class="cls-4" transform="translate(-18.394 -17.29)">
            <path id="패스_1543" fill="#ea4334" d="M-4.043-23H23.7v19.93H-4.043z" transform="translate(16.673 34.527)"/>
        </g>
    </g>
</svg>
