<svg width="44" height="44" xmlns="http://www.w3.org/2000/svg">
    <g fill="none" fill-rule="evenodd">
        <circle stroke="#EFF2F5" stroke-width=".733" cx="22" cy="22" r="21.633"/>
        <path d="M34.672 22.3c0-.936-.084-1.836-.24-2.7H22v5.106h7.104a6.072 6.072 0 0 1-2.634 3.984v3.312h4.266c2.496-2.298 3.936-5.682 3.936-9.702z" fill="#4285F4"/>
        <path d="M22 35.2c3.564 0 6.552-1.182 8.736-3.198L26.47 28.69c-1.182.792-2.694 1.26-4.47 1.26-3.438 0-6.348-2.322-7.386-5.442h-4.41v3.42C12.376 32.242 16.84 35.2 22 35.2z" fill="#34A853"/>
        <path d="M14.614 24.508A7.935 7.935 0 0 1 14.2 22c0-.87.15-1.716.414-2.508v-3.42h-4.41A13.195 13.195 0 0 0 8.8 22c0 2.13.51 4.146 1.404 5.928l4.41-3.42z" fill="#FBBC05"/>
        <path d="M22 14.05c1.938 0 3.678.666 5.046 1.974l3.786-3.786C28.546 10.108 25.558 8.8 22 8.8c-5.16 0-9.624 2.958-11.796 7.272l4.41 3.42c1.038-3.12 3.948-5.442 7.386-5.442z" fill="#EA4335"/>
        <path d="M8.8 8.8h26.4v26.4H8.8z"/>
    </g>
</svg>
