<svg xmlns="http://www.w3.org/2000/svg" width="23.848" height="23.848" viewBox="0 0 23.848 23.848">
    <g>
        <g>
            <path fill="#66629b" fill-rule="evenodd" d="M19.886 10.347h-1.645L18.67 8.2l-2.337-.467-.525 2.619h-2.337L13.9 8.2l-2.337-.467-.525 2.619H7.962v2.385h2.6l-.478 2.385H7.962V17.5h1.646l-.429 2.151 2.337.467.524-2.618h2.337l-.429 2.151 2.337.467.525-2.618h3.076v-2.384h-2.6l.478-2.385h2.122zm5.962 3.577A11.924 11.924 0 1 1 13.924 2a11.925 11.925 0 0 1 11.924 11.924zm-12.854-1.192h2.338l-.478 2.385h-2.338z" transform="translate(-2 -2) translate(2 2) translate(-2 -2)"/>
        </g>
    </g>
</svg>
