<svg xmlns="http://www.w3.org/2000/svg" id="Icon" width="17.045" height="13.241" viewBox="0 0 17.045 13.241">
    <defs>
        <style>
            .cls-1{fill:#d91448}
        </style>
    </defs>
    <path id="Path" d="M12.856 0a6.617 6.617 0 0 0-4.163 1.956A6.828 6.828 0 0 0 4.488 0C1.839 0 0 1.594 0 3.879c0 4.962 7.61 9.051 7.947 9.216a1.3 1.3 0 0 0 1.2 0c.322-.171 7.9-4.28 7.9-9.212C17.018 1.487 15.425 0 12.856 0z" class="cls-1"/>
    <path id="Path-2" d="M7.395 11.314S0 7.4 0 2.909C0 1.173 1.321 0 3.353 0S7.19 2.263 7.569 2.263 9.7 0 11.732 0a2.705 2.705 0 0 1 3.027 2.909c.015 4.451-7.364 8.405-7.364 8.405z" class="cls-1" transform="translate(1.109 .97)"/>
</svg>
