<svg xmlns="http://www.w3.org/2000/svg" width="28.04" height="25.502" viewBox="0 0 28.04 25.502">
    <defs>
        <style>
            .cls-1{fill:#d91448}
        </style>
    </defs>
    <g id="Icon" transform="translate(-10 -11)">
        <path id="Path" d="M21.148 0c-2.982 0-5.366 2.266-6.848 3.766C12.787 2.279 10.359 0 7.384 0A7.1 7.1 0 0 0 0 7.471C0 17.027 12.52 24.9 13.074 25.22a1.868 1.868 0 0 0 1.974 0c.529-.33 12.993-8.243 12.993-17.743C28 2.864 25.376 0 21.148 0z" class="cls-1" transform="translate(10 11)"/>
        <path id="Path-2" d="M12.165 21.79S0 14.257 0 5.6A5.245 5.245 0 0 1 5.516 0c3.343 0 6.313 4.358 6.935 4.358S15.956 0 19.3 0s4.98 2.26 4.98 5.6c.02 8.576-12.115 16.19-12.115 16.19z" class="cls-1" transform="translate(11.824 12.868)"/>
    </g>
</svg>
