<svg xmlns="http://www.w3.org/2000/svg" width="17.045" height="15.502" viewBox="0 0 17.045 15.502">
    <defs>
        <style>
            .cls-1{fill:#d91448}
        </style>
    </defs>
    <g id="Icon" transform="translate(-10 -11)">
        <path id="Path" d="M12.856 0c-1.813 0-3.263 1.378-4.163 2.29C7.773 1.385 6.3 0 4.488 0A4.315 4.315 0 0 0 0 4.541c0 5.809 7.61 10.6 7.947 10.789a1.135 1.135 0 0 0 1.2 0c.322-.2 7.9-5.011 7.9-10.785C17.018 1.741 15.425 0 12.856 0z" class="cls-1" transform="translate(10 11)"/>
        <path id="Path-2" d="M7.395 13.245S0 8.666 0 3.406A3.188 3.188 0 0 1 3.353 0C5.385 0 7.19 2.649 7.569 2.649S9.7 0 11.732 0s3.027 1.374 3.027 3.406c.015 5.211-7.364 9.839-7.364 9.839z" class="cls-1" transform="translate(11.109 12.135)"/>
    </g>
</svg>
