<svg xmlns="http://www.w3.org/2000/svg" width="16" height="16" viewBox="0 0 16 16">
    <path fill="#9c93ce" d="M0 14.5A1.618 1.618 0 0 0 1.714 16h12.572A1.618 1.618 0 0 0 16 14.5V6H0zm11.429-6.125A.406.406 0 0 1 11.857 8h1.429a.406.406 0 0 1 .429.375v1.25a.406.406 0 0 1-.429.375h-1.429a.406.406 0 0 1-.429-.375zm0 4a.406.406 0 0 1 .428-.375h1.429a.406.406 0 0 1 .429.375v1.25a.406.406 0 0 1-.429.375h-1.429a.406.406 0 0 1-.429-.375zm-4.571-4A.406.406 0 0 1 7.286 8h1.428a.406.406 0 0 1 .429.375v1.25a.406.406 0 0 1-.429.375H7.286a.406.406 0 0 1-.429-.375zm0 4A.406.406 0 0 1 7.286 12h1.428a.406.406 0 0 1 .429.375v1.25a.406.406 0 0 1-.429.375H7.286a.406.406 0 0 1-.429-.375zm-4.571-4A.406.406 0 0 1 2.714 8h1.429a.406.406 0 0 1 .429.375v1.25a.406.406 0 0 1-.429.375H2.714a.406.406 0 0 1-.429-.375zm0 4A.406.406 0 0 1 2.714 12h1.429a.406.406 0 0 1 .429.375v1.25a.406.406 0 0 1-.429.375H2.714a.406.406 0 0 1-.429-.375zM14.286 2h-1.715V.5A.541.541 0 0 0 12 0h-1.143a.541.541 0 0 0-.571.5V2H5.714V.5a.541.541 0 0 0-.571-.5H4a.541.541 0 0 0-.571.5V2H1.714A1.618 1.618 0 0 0 0 3.5V5h16V3.5A1.618 1.618 0 0 0 14.286 2z"/>
</svg>
