<svg xmlns="http://www.w3.org/2000/svg" width="18" height="18" viewBox="0 0 18 18">
    <g>
        <path fill="#fff" d="M28 18.989A9.006 9.006 0 0 0 19.382 10h-.72a9 9 0 0 0-.09 17.978c.09 0 .18.022.248.022h.36a.845.845 0 0 0 .247-.022A9.029 9.029 0 0 0 28 18.989zm-17.077.449h2.925a15.1 15.1 0 0 0 .563 3.775 9.647 9.647 0 0 0-1.756.787 8.017 8.017 0 0 1-1.732-4.562zM12.632 14a11.476 11.476 0 0 0 1.755.787 14.947 14.947 0 0 0-.562 3.775H10.9A8.217 8.217 0 0 1 12.632 14zm14.445 4.539h-2.9a15.832 15.832 0 0 0-.54-3.708 10.077 10.077 0 0 0 1.8-.764 8.034 8.034 0 0 1 1.64 4.472zm-3.8 0H19.45v-3.033a15.674 15.674 0 0 0 3.307-.4 14.7 14.7 0 0 1 .518 3.433zm-3.827-3.932v-3.686c1.215.18 2.317 1.438 3.015 3.3a14.368 14.368 0 0 1-3.015.386zm-.9-3.685v3.685a15.514 15.514 0 0 1-2.992-.4c.697-1.87 1.777-3.128 2.992-3.286zm0 4.584v3.034h-3.825a14.13 14.13 0 0 1 .54-3.506 15.438 15.438 0 0 0 3.285.472zm-3.825 3.933h3.825v3.034a15.437 15.437 0 0 0-3.285.472 14.13 14.13 0 0 1-.54-3.507zm3.825 3.955v3.685c-1.215-.157-2.3-1.416-2.992-3.258a12.647 12.647 0 0 1 2.992-.428zm.9 3.663v-3.686a14.368 14.368 0 0 1 3.015.382c-.698 1.865-1.8 3.123-3.015 3.303zm0-4.584v-3.035h3.825a15.077 15.077 0 0 1-.517 3.461 15.664 15.664 0 0 0-3.308-.427zm4.725-3.034H27.1a8.07 8.07 0 0 1-1.642 4.449 12.032 12.032 0 0 0-1.8-.764 16.542 16.542 0 0 0 .517-3.686zm.653-6.045a11.343 11.343 0 0 1-1.485.606 8.515 8.515 0 0 0-1.417-2.539 7.929 7.929 0 0 1 2.901 1.932zm-8.752-1.955a7.9 7.9 0 0 0-1.4 2.472 12.042 12.042 0 0 1-1.44-.607 8.088 8.088 0 0 1 2.839-1.866zM13.24 24.674a8.4 8.4 0 0 1 1.44-.607 7.9 7.9 0 0 0 1.4 2.472 8.088 8.088 0 0 1-2.84-1.865zm8.685 1.865A8.049 8.049 0 0 0 23.343 24a8.9 8.9 0 0 1 1.485.607 8.532 8.532 0 0 1-2.903 1.932z" transform="translate(-10 -10)"/>
    </g>
</svg>
