<svg xmlns="http://www.w3.org/2000/svg" width="32" height="32" viewBox="0 0 32 32">
    <rect width="32" height="32" fill="#9c93ce" rx="10"/>
    <g>
        <path fill="#fff" d="M20.352 10.9h-5.7v-4A2.158 2.158 0 0 0 12.5 4.75H4.215A2.158 2.158 0 0 0 2.06 6.9v5.18a2.107 2.107 0 0 0 .369 1.2c.789 1.537 4.545 3.842 4.583 3.876a.34.34 0 0 0 .492-.417 14.963 14.963 0 0 1-.683-2.51h3.093v4a2.155 2.155 0 0 0 2.155 2.151h5.679a14.963 14.963 0 0 1-.683 2.51.338.338 0 0 0 .492.413c.038-.024 3.794-2.339 4.583-3.876a2.107 2.107 0 0 0 .369-1.2v-5.176a2.158 2.158 0 0 0-2.157-2.151zM8.695 13.553H6.414a.343.343 0 0 0-.338.4 18.539 18.539 0 0 0 .475 2.1c-1.181-.8-3.042-2.172-3.507-3.056a.437.437 0 0 0-.038-.068 1.448 1.448 0 0 1-.263-.837V6.9a1.475 1.475 0 0 1 1.472-1.467H12.5A1.475 1.475 0 0 1 13.97 6.9v4h-1.9a2.155 2.155 0 0 0-1.677.8 3.015 3.015 0 0 1-1.4-.341 4.279 4.279 0 0 0 1.065-2.6h.43a.341.341 0 1 0 0-.683H8.712V7a.341.341 0 0 0-.683 0v1.066H6.25a.341.341 0 1 0 0 .683h3.121a3.575 3.575 0 0 1-.884 2.138l-.055.051a3.548 3.548 0 0 1-.854-1.321.342.342 0 1 0-.639.246 4.255 4.255 0 0 0 .929 1.482 3.35 3.35 0 0 1-1.608.355.341.341 0 1 0 0 .683 3.927 3.927 0 0 0 2.175-.577 3.531 3.531 0 0 0 1.595.54 2.09 2.09 0 0 0-.116.683v.5zm13.129 4.678a1.448 1.448 0 0 1-.263.837.236.236 0 0 0-.034.065c-.464.884-2.329 2.261-3.51 3.073a18.538 18.538 0 0 0 .475-2.1.343.343 0 0 0-.338-.4h-6.086a1.472 1.472 0 0 1-1.468-1.461v-5.194a1.475 1.475 0 0 1 1.472-1.472h8.284a1.475 1.475 0 0 1 1.472 1.472zm-5.283-5.252a.311.311 0 0 0-.051-.079.039.039 0 0 0-.024-.034.359.359 0 0 0-.038-.024.342.342 0 0 0-.072-.048.307.307 0 0 0-.055 0 .53.53 0 0 0-.072 0 .406.406 0 0 0-.089.017h-.04a.386.386 0 0 0-.089.055l-.024.017-.027.041a.522.522 0 0 0-.048.072l-2.049 5.122a.341.341 0 0 0 .191.444.321.321 0 0 0 .126.024.341.341 0 0 0 .318-.215l.594-1.492h2.271l.6 1.492a.342.342 0 1 0 .635-.253zm-1.185 3.2l.864-2.155.861 2.155z" transform="translate(3.44 1.691)"/>
    </g>
</svg>
