<svg xmlns="http://www.w3.org/2000/svg" width="13.435" height="17" viewBox="0 0 13.435 17">
    <path fill="#9c93ce" d="M6.717 17a.678.678 0 0 1-.522-.221A38.364 38.364 0 0 1 3.013 13.1C1.042 10.49 0 8.26 0 6.652a6.477 6.477 0 0 1 2.127-4.878A6.936 6.936 0 0 1 6.717 0a6.937 6.937 0 0 1 4.59 1.774 6.477 6.477 0 0 1 2.127 4.878c0 1.608-1.042 3.838-3.014 6.449a38.386 38.386 0 0 1-3.182 3.677.678.678 0 0 1-.521.222zm0-12.565a2.179 2.179 0 0 0-2.238 2.217A2.179 2.179 0 0 0 6.717 8.87a2.18 2.18 0 0 0 2.239-2.218 2.179 2.179 0 0 0-2.239-2.217z"/>
</svg>
