<svg xmlns="http://www.w3.org/2000/svg" width="32" height="32" viewBox="0 0 32 32">
    <rect width="32" height="32" fill="#e4e9f2" rx="10"/>
    <path fill="#8f9bb3" d="M12.917 15H6.25a.417.417 0 0 1 0-.833h6.666a1.252 1.252 0 0 0 1.25-1.25V2.083a1.252 1.252 0 0 0-1.25-1.25H6.25a.417.417 0 0 1 0-.833h6.666A2.086 2.086 0 0 1 15 2.083v10.833A2.086 2.086 0 0 1 12.917 15zm-9.166-4.166a.414.414 0 0 1-.295-.122L.122 7.378a.417.417 0 0 1 0-.59l3.334-3.333a.417.417 0 1 1 .589.59L1.423 6.667h8.994a.417.417 0 0 1 0 .833H1.423l2.622 2.622a.417.417 0 0 1-.295.712z" transform="translate(8.5 8.5)"/>
</svg>
