<?xml version="1.0" encoding="utf-8"?>
<!-- Generator: Adobe Illustrator 25.2.2, SVG Export Plug-In . SVG Version: 6.00 Build 0)  -->
<svg version="1.1" id="레이어_1" xmlns="http://www.w3.org/2000/svg" xmlns:xlink="http://www.w3.org/1999/xlink" x="0px"
	 y="0px" viewBox="0 0 122.4 34" style="enable-background:new 0 0 122.4 34;" xml:space="preserve">
<style type="text/css">
	.st0{clip-path:url(#SVGID_2_);fill:url(#SVGID_3_);}
</style>
<g>
	<path d="M0.5,3.2h16.8v4.1H5.5v6.5h12.5v4H0.5V3.2z M21.9,24.4v-1H1.7v-3.7h25.1v8.4H6.8v1h20.8v3.7H1.7v-8.4H21.9z M21.9,2.8h5
		v15.7h-5V2.8z"/>
	<path d="M31.7,32.3V15.5h11.5V7.2H31.6V3.2h16.6v16.4H36.7v8.7h13.1v4H31.7z M61,18.3h-4.2v14.6h-5V2.8h5v11.5H61V18.3z"/>
	<path d="M89.7,33.3c-1.2-0.2-2.3-0.4-3.4-0.6c-1.2-0.3-2.3-0.6-3.3-1c-1.1-0.5-2-1-2.9-1.5c-0.9-0.6-1.7-1.3-2.3-2.2
		c-0.6,0.8-1.4,1.5-2.2,2.1c-0.9,0.6-1.9,1.1-2.9,1.5c-1.1,0.4-2.2,0.8-3.3,1.1c-1.2,0.3-2.4,0.5-3.5,0.6l-1.6-3.9
		c1.5-0.2,2.9-0.4,4.3-0.7c1.4-0.4,2.5-0.8,3.5-1.4c1-0.5,1.8-1.2,2.4-2c0.6-0.8,0.9-1.7,0.9-2.7v-1.6h5v1.6c0,1,0.3,1.9,0.9,2.7
		c0.6,0.8,1.4,1.4,2.4,2c1,0.5,2.2,1,3.5,1.4c1.4,0.3,2.8,0.5,4.3,0.7L89.7,33.3z"/>
	<path d="M79.4,7.5c-0.5-1-1.1-1.9-1.8-2.6c-0.8-0.7-1.7-1.2-2.8-1.6c-1.1-0.3-2.2-0.5-3.3-0.5c-1.2,0-2.3,0.2-3.3,0.5
		c-1.1,0.4-2,0.9-2.7,1.6c-0.8,0.7-1.4,1.6-1.9,2.6c-0.5,1-0.7,2.2-0.7,3.5c0,1.3,0.2,2.5,0.7,3.5c0.5,1,1.1,1.9,1.9,2.6
		c0.8,0.7,1.7,1.2,2.7,1.6c1,0.4,2.1,0.5,3.3,0.5c1.2,0,2.3-0.2,3.3-0.5c1-0.3,2-0.8,2.8-1.5c0.8-0.7,1.4-1.5,1.8-2.6
		c0.5-1,0.7-2.2,0.7-3.5C80,9.7,79.8,8.5,79.4,7.5z M74.2,14.1c-0.6,0.7-1.5,1.1-2.8,1.1c-1.2,0-2.1-0.4-2.7-1.1
		c-0.6-0.7-1-1.7-1-3.1c0-1.3,0.3-2.3,1-3.1c0.6-0.7,1.5-1.1,2.7-1.1c1.2,0,2.1,0.4,2.8,1.1c0.6,0.7,0.9,1.8,0.9,3.1
		C75.1,12.4,74.8,13.4,74.2,14.1z"/>
	<rect x="84.9" y="7.4" width="5" height="14.7"/>
	<path d="M112.4,3.5V32H96.7V3.5H112.4z M99.6,29.6h9.8V5.9h-9.8V29.6z M119.4,3h2.9v29.5h-2.9V3z"/>
	<g>
		<defs>
			<path id="SVGID_1_" d="M85.5,0.9c-0.5,0.5-0.8,1.2-0.8,2c0,0.8,0.3,1.4,0.8,2c0.5,0.5,1.2,0.8,2,0.8s1.4-0.3,2-0.8
				c0.5-0.5,0.8-1.2,0.8-2c0-0.8-0.3-1.4-0.8-2c-0.5-0.5-1.2-0.8-2-0.8S86,0.4,85.5,0.9"/>
		</defs>
		<clipPath id="SVGID_2_">
			<use xlink:href="#SVGID_1_"  style="overflow:visible;"/>
		</clipPath>
		
			<linearGradient id="SVGID_3_" gradientUnits="userSpaceOnUse" x1="-422.0449" y1="540.0916" x2="-421.8727" y2="540.0916" gradientTransform="matrix(32.1245 0 0 -32.1245 13642.6475 17353.0215)">
			<stop  offset="0" style="stop-color:#916DAE"/>
			<stop  offset="1" style="stop-color:#BACEEA"/>
		</linearGradient>
		<rect x="84.7" y="0.1" class="st0" width="5.5" height="5.5"/>
	</g>
</g>
</svg>
