<svg width="127" height="24" xmlns="http://www.w3.org/2000/svg" xmlns:xlink="http://www.w3.org/1999/xlink">
    <defs>
        <path id="a" d="M0 0h14.249v17.455H0z"/>
        <path d="M.618.62A2.042 2.042 0 0 0 0 2.115C0 2.7.206 3.197.618 3.61c.411.414.908.62 1.489.62.582 0 1.078-.206 1.49-.62.411-.413.617-.911.617-1.495 0-.583-.206-1.082-.617-1.495A2.026 2.026 0 0 0 2.107 0C1.526 0 1.029.207.617.62" id="c"/>
        <linearGradient x1="77.53%" y1="-3.534%" x2="22.45%" y2="103.516%" id="d">
            <stop stop-color="#AB44FF" offset="0%"/>
            <stop stop-color="#7EB4FF" offset="100%"/>
        </linearGradient>
    </defs>
    <g fill="none" fill-rule="evenodd">
        <g transform="translate(0 .364)">
            <mask id="b" fill="#fff">
                <use xlink:href="#a"/>
            </mask>
            <path d="M3.333 14.352h2.294c.435 0 1.28 0 1.884-.122 2.27-.46 3.26-3.006 3.26-5.503 0-2.618-1.063-5.066-3.26-5.503-.604-.12-1.45-.12-1.884-.12H3.333v11.248zM0 17.455V0h5.627c.266 0 1.28 0 2.077.097 4.202.509 6.545 4.194 6.545 8.63 0 4.437-2.343 8.122-6.545 8.63-.797.098-1.811.098-2.077.098H0z" fill="#231916" mask="url(#b)"/>
        </g>
        <path d="M19.393 9.745h5.748c-.23-1.77-1.051-2.52-2.633-2.52-1.763 0-2.777.86-3.115 2.52zm-.085 2.449c.242 1.867 1.28 2.909 3.055 2.909 1.28 0 2.222-.582 2.705-1.648l3.285.945c-.99 2.4-3.285 3.782-5.796 3.782-4.01 0-6.787-2.812-6.787-6.74 0-4.29 2.73-7.078 6.593-7.078 4.106 0 6.497 3.078 6.098 7.83h-9.153zM38.447 11.818c-2.197.376-3.091.558-3.84.837-.966.387-1.352.848-1.352 1.502 0 .897.7 1.431 1.835 1.431 1.812 0 2.754-1.188 3.02-1.746.277-.57.325-1.394.337-2.024m3.26-2v8h-2.873v-1.6c-1.16 1.382-2.44 1.964-4.444 1.964-2.802 0-4.347-1.794-4.347-3.976 0-1.818.748-3.176 2.85-3.951 1.255-.461 3.127-.74 5.578-1.104-.132-1.224-.845-1.781-2.39-1.781-.967 0-2.198.412-2.609 1.6l-2.97-.946c.652-2.157 2.439-3.66 5.578-3.66 2.295 0 4.179.63 5.096 2.375.507.97.532 1.891.532 3.08M43.953 17.818h3.285V0h-3.285zM49.484 17.818h3.284V5.51h-3.284zM64.554 11.273c0-2.376-.821-3.976-2.874-3.976-2.198 0-3.188 1.794-3.188 3.976 0 2.206.942 3.976 3.067 3.976 2.198 0 2.995-1.6 2.995-3.976zm0-6.546h2.874v13.988c0 .655-.049 1.212-.194 1.77-.627 2.4-3.042 3.515-5.917 3.515-2.221 0-4.202-1.14-5.192-2.836l3.043-1.48c.41.777 1.256 1.189 2.174 1.189 1.473 0 2.85-.752 2.801-2.206v-1.322c-.845.534-1.884.837-3.115.837-3.599 0-6.014-2.982-6.014-6.91 0-4 2.44-6.908 6.183-6.908 1.352 0 2.475.4 3.357 1.09v-.727zM81.894 10.473v7.345H78.56v-6.182c0-1.188 0-4.194-2.802-4.194-1.134 0-2.777.485-2.777 3.734v6.642H69.65V.364h2.923v5.709c.942-1.055 2.354-1.734 4.226-1.734 5.096 0 5.096 5.043 5.096 6.134M88.438 7.273v4.8c0 1.018-.048 1.866.266 2.351.58.921 1.956.873 3.502.655v2.74c-2.705.508-5.458.29-6.52-1.625-.653-1.188-.532-2.352-.532-3.927V7.273h-2.222V4.727h2.222V1.091h3.284v3.636h3.768v2.546h-3.768zM95.9 17.818V.364h1.63l6.835 14.678L111.164.364h1.654v17.442h-1.69V4.34l-6.195 13.48h-1.147l-6.183-13.48v13.48zM116.755 10.279h8.38C124.857 7.454 123.468 6 121.04 6c-2.511 0-4.009 1.527-4.286 4.279zm-.037 1.49c.145 2.995 1.679 4.704 4.275 4.704 1.86 0 3.284-.885 4.094-2.522l1.654.643c-1.039 2.29-3.152 3.588-5.675 3.588-3.804 0-6.243-2.703-6.243-6.849 0-4.29 2.402-6.97 6.17-6.97 3.864 0 6.134 2.789 6.001 7.407h-10.276z" fill="#231916"/>
        <g transform="translate(49 .017)">
            <mask id="e" fill="#fff">
                <use xlink:href="#c"/>
            </mask>
            <path d="M.618.62A2.042 2.042 0 0 0 0 2.115C0 2.7.206 3.197.618 3.61c.411.414.908.62 1.489.62.582 0 1.078-.206 1.49-.62.411-.413.617-.911.617-1.495 0-.583-.206-1.082-.617-1.495A2.026 2.026 0 0 0 2.107 0C1.526 0 1.029.207.617.62" fill="url(#d)" mask="url(#e)"/>
        </g>
    </g>
</svg>
