<svg xmlns="http://www.w3.org/2000/svg" width="15.947" height="16" viewBox="0 0 15.947 16">
    <defs>
        <style>
            .cls-1{fill:#fff}
        </style>
    </defs>
    <g id="logout" transform="rotate(-90 7.575 8.425)">
        <g id="그룹_860" transform="translate(0 .85)">
            <g id="그룹_859">
                <path id="패스_799" d="M7.973 15.468h-5.98a.665.665 0 0 1-.664-.664V2.843a.665.665 0 0 1 .664-.664h5.98a.664.664 0 0 0 0-1.329h-5.98A2 2 0 0 0 0 2.843V14.8a2 2 0 0 0 1.993 2h5.98a.664.664 0 0 0 0-1.329z" class="cls-1" transform="translate(0 -.85)"/>
            </g>
        </g>
        <g id="그룹_862" transform="translate(5.316 4.172)">
            <g id="그룹_861">
                <path id="패스_800" d="M180.586 111.343l-4.04-3.987a.664.664 0 0 0-.933.946l2.887 2.849h-7.736a.664.664 0 0 0 0 1.329h7.736l-2.887 2.849a.664.664 0 1 0 .933.946l4.04-3.987a.664.664 0 0 0 0-.946z" class="cls-1" transform="translate(-170.1 -107.165)"/>
            </g>
        </g>
    </g>
</svg>
