<svg xmlns="http://www.w3.org/2000/svg" id="그룹_12204" width="22" height="22" viewBox="0 0 22 22">
    <defs>
        <style>
            .cls-2{fill:#dc000c}
        </style>
    </defs>
    <path id="패스_7357" fill="#fff" d="M3.193.028L12.41 0a3.133 3.133 0 0 1 3.146 3.146l-.028 9.217a3.179 3.179 0 0 1-3.165 3.165l-9.217.028A3.133 3.133 0 0 1 0 12.41l.028-9.217A3.179 3.179 0 0 1 3.193.028z" transform="rotate(-44.999 13.279 5.5)"/>
    <g id="그룹_2187" transform="translate(8.144 5.238)">
        <g id="그룹_2185" transform="translate(0 10.261)">
            <path id="패스_7287" d="M195.961 290.975a.559.559 0 1 1 .024 0z" class="cls-2" transform="translate(-195.4 -289.85)"/>
        </g>
        <g id="그룹_2186" transform="translate(.205)">
            <path id="패스_7288" d="M198.354 263.2a1.018 1.018 0 0 0-.755.295 3.549 3.549 0 0 0-.637 2.49c.024 1.452.37 4.3 1.512 5.766a2.539 2.539 0 0 0 .592.564 1.315 1.315 0 0 0 .779.263 1.729 1.729 0 0 0 .3-.029 4.122 4.122 0 0 0 2.084-1.855.5.5 0 1 1 .854.537 4.946 4.946 0 0 1-2.724 2.3l-.023.005a2.778 2.778 0 0 1-.5.048 2.328 2.328 0 0 1-1.33-.43 3.551 3.551 0 0 1-.831-.786c-1.607-2.064-1.717-5.934-1.724-6.368a4.561 4.561 0 0 1 .935-3.223 2 2 0 0 1 1.462-.587h.094a2 2 0 0 1 1.464.587 4.561 4.561 0 0 1 .935 3.223 10.408 10.408 0 0 1-1.327 5.014.5.5 0 0 1-.866-.517 8.741 8.741 0 0 0 1.185-4.514 3.548 3.548 0 0 0-.637-2.491 1.015 1.015 0 0 0-.754-.295z" class="cls-2" transform="translate(-195.952 -262.194)"/>
        </g>
    </g>
</svg>
