<svg xmlns="http://www.w3.org/2000/svg" width="15.759" height="15.759" viewBox="0 0 15.759 15.759">
    <defs>
        <style>
            .cls-2{fill:#fff}
        </style>
    </defs>
    <g id="그룹_2188" transform="translate(-172.527 -247.428)">
        <path id="패스_7320" fill="#dc000c" d="M2.821.015L8.353 0a2.779 2.779 0 0 1 2.79 2.79l-.015 5.532a2.817 2.817 0 0 1-2.806 2.806l-5.532.015A2.779 2.779 0 0 1 0 8.353l.015-5.532A2.817 2.817 0 0 1 2.821.015z" transform="rotate(-44.999 394.454 -80.61)"/>
        <g id="그룹_2187" transform="translate(178.383 251.185)">
            <g id="그룹_2185" transform="translate(0 7.296)">
                <path id="패스_7287" d="M195.8 290.65a.4.4 0 1 1 .017 0z" class="cls-2" transform="translate(-195.4 -289.85)"/>
            </g>
            <g id="그룹_2186" transform="translate(.146)">
                <path id="패스_7288" d="M197.66 262.91a.724.724 0 0 0-.537.21 2.523 2.523 0 0 0-.453 1.771 7.955 7.955 0 0 0 1.075 4.1 1.8 1.8 0 0 0 .421.4.935.935 0 0 0 .554.187 1.233 1.233 0 0 0 .217-.021 2.931 2.931 0 0 0 1.482-1.319.359.359 0 1 1 .607.382 3.517 3.517 0 0 1-1.937 1.638h-.017a1.974 1.974 0 0 1-.356.034 1.656 1.656 0 0 1-.946-.306 2.526 2.526 0 0 1-.591-.559c-1.143-1.468-1.221-4.219-1.226-4.528a3.243 3.243 0 0 1 .665-2.292 1.424 1.424 0 0 1 1.039-.417h.066a1.426 1.426 0 0 1 1.041.417 3.243 3.243 0 0 1 .665 2.292 7.4 7.4 0 0 1-.944 3.566.359.359 0 0 1-.616-.368 6.215 6.215 0 0 0 .842-3.21 2.523 2.523 0 0 0-.453-1.771.722.722 0 0 0-.536-.21z" class="cls-2" transform="translate(-195.952 -262.194)"/>
            </g>
        </g>
    </g>
</svg>
