<svg width="136" height="24" xmlns="http://www.w3.org/2000/svg">
    <g fill-rule="nonzero" fill="none">
        <path d="M60.203 16.042v-5.009c0-1.886-1.217-3.155-3.177-3.172a3.14 3.14 0 0 0-2.84 1.42 2.976 2.976 0 0 0-2.67-1.42 2.682 2.682 0 0 0-2.366 1.186v-.985h-1.757v7.98h1.774v-4.424c0-1.386.778-2.12 1.978-2.12 1.166 0 1.757.75 1.757 2.103v4.441h1.775v-4.424c0-1.386.811-2.12 1.977-2.12 1.2 0 1.775.75 1.775 2.103v4.441h1.774zm26.263-7.98h-2.873V5.64h-1.775v2.42h-1.64v1.587h1.64v3.64c0 1.853.727 2.955 2.806 2.955a4.167 4.167 0 0 0 2.197-.618l-.507-1.486a3.274 3.274 0 0 1-1.555.45c-.879 0-1.166-.534-1.166-1.335V9.648h2.873V8.062zm14.99-.2a2.39 2.39 0 0 0-2.13 1.168v-.968h-1.74v7.98h1.758v-4.474c0-1.32.574-2.054 1.724-2.054.375-.005.749.063 1.098.2l.54-1.636a3.797 3.797 0 0 0-1.25-.217zm-22.663.834a6.099 6.099 0 0 0-3.295-.835c-2.045 0-3.363.969-3.363 2.555 0 1.302.98 2.103 2.788 2.354l.828.117c.963.133 1.42.384 1.42.834 0 .618-.643.969-1.842.969a4.34 4.34 0 0 1-2.688-.835l-.828 1.352a5.879 5.879 0 0 0 3.499 1.036c2.332 0 3.684-1.086 3.684-2.605 0-1.403-1.065-2.137-2.822-2.388l-.828-.116c-.761-.1-1.37-.25-1.37-.785 0-.584.575-.935 1.539-.935a5.256 5.256 0 0 1 2.518.685l.76-1.403zm47.084-.835a2.39 2.39 0 0 0-2.13 1.169v-.968h-1.74v7.98h1.757v-4.474c0-1.32.575-2.054 1.724-2.054.376-.005.75.063 1.099.2l.54-1.636a3.797 3.797 0 0 0-1.25-.217zm-22.646 4.19c0 2.422 1.707 4.192 4.31 4.192a4.265 4.265 0 0 0 2.906-.952l-.845-1.403a3.579 3.579 0 0 1-2.113.718c-1.402-.016-2.433-1.018-2.433-2.554 0-1.536 1.03-2.538 2.433-2.554.764.008 1.505.26 2.113.717l.845-1.402a4.265 4.265 0 0 0-2.907-.952c-2.602 0-4.31 1.77-4.31 4.19zm16.46 0v-3.99h-1.757v.969a3.08 3.08 0 0 0-2.552-1.169c-2.265 0-4.04 1.754-4.04 4.19 0 2.438 1.775 4.192 4.04 4.192a3.08 3.08 0 0 0 2.552-1.17v.97h1.757v-3.991zm-6.54 0c0-1.402.93-2.553 2.45-2.553 1.454 0 2.434 1.101 2.434 2.554 0 1.452-.98 2.554-2.433 2.554-1.522 0-2.451-1.152-2.451-2.554zm-21.21-4.19c-2.366 0-4.022 1.703-4.022 4.19 0 2.539 1.724 4.192 4.14 4.192a4.949 4.949 0 0 0 3.313-1.12l-.862-1.285a3.878 3.878 0 0 1-2.349.835c-1.132 0-2.163-.517-2.417-1.953h6c.017-.217.034-.434.034-.668-.017-2.488-1.572-4.19-3.837-4.19zm-.033 1.553c1.132 0 1.859.869 2.045 2.4H89.76c.186-1.428.896-2.4 2.147-2.4zM136 12.052V4.856h-1.758V9.03a3.08 3.08 0 0 0-2.551-1.169c-2.265 0-4.04 1.754-4.04 4.19 0 2.438 1.775 4.192 4.04 4.192a3.08 3.08 0 0 0 2.551-1.17v.97H136v-3.991zm-6.54 0c0-1.403.93-2.554 2.45-2.554 1.453 0 2.434 1.101 2.434 2.554 0 1.452-.98 2.554-2.434 2.554-1.52 0-2.45-1.152-2.45-2.554zm-59.353 0v-3.99h-1.758v.968a3.08 3.08 0 0 0-2.552-1.169c-2.265 0-4.04 1.754-4.04 4.19 0 2.438 1.775 4.192 4.04 4.192a3.08 3.08 0 0 0 2.552-1.17v.97h1.758v-3.991zm-6.54 0c0-1.403.929-2.554 2.45-2.554 1.453 0 2.433 1.101 2.433 2.554 0 1.452-.98 2.554-2.433 2.554-1.521 0-2.45-1.152-2.45-2.554z" fill="#231F20"/>
        <path fill="#FF5F00" d="M14.339 2.566h10.629v18.869H14.339z"/>
        <path d="M15.014 12a11.927 11.927 0 0 1 4.64-9.434C14.673-1.301 7.52-.74 3.223 3.859a11.893 11.893 0 0 0 0 16.282c4.297 4.598 11.45 5.16 16.43 1.293A11.927 11.927 0 0 1 15.013 12z" fill="#EB001B"/>
        <path d="M39.306 12c0 4.594-2.655 8.785-6.837 10.793a12.268 12.268 0 0 1-12.816-1.359A11.949 11.949 0 0 0 24.293 12c0-3.681-1.71-7.159-4.64-9.434a12.268 12.268 0 0 1 12.816-1.36c4.182 2.009 6.837 6.2 6.837 10.794z" fill="#F79E1B"/>
    </g>
</svg>
