<svg xmlns="http://www.w3.org/2000/svg" width="17.334" height="21.667" viewBox="0 0 17.334 21.667">
    <path fill="#9c93ce" d="M6.336 14.679a29.171 29.171 0 0 1 4.686 0 19.112 19.112 0 0 1 2.53.318c1.809.366 2.99.964 3.5 1.928a2.668 2.668 0 0 1 0 2.4c-.506.964-1.64 1.6-3.515 1.928A18.167 18.167 0 0 1 11 21.58a21.572 21.572 0 0 1-2.371.087H7.2a6.833 6.833 0 0 0-.872-.058 17.323 17.323 0 0 1-2.528-.318c-1.809-.347-2.99-.964-3.5-1.928a2.643 2.643 0 0 1-.3-1.214 2.614 2.614 0 0 1 .291-1.224c.5-.964 1.678-1.59 3.505-1.928a18.507 18.507 0 0 1 2.54-.318zM8.67 0a5.771 5.771 0 0 1 5.689 5.85A5.771 5.771 0 0 1 8.67 11.7a5.771 5.771 0 0 1-5.689-5.85A5.771 5.771 0 0 1 8.67 0z"/>
</svg>
