<svg xmlns="http://www.w3.org/2000/svg" id="Group" width="32" height="32" viewBox="0 0 32 32">
    <defs>
        <style>
            .cls-2{fill:#fff}
        </style>
    </defs>
    <rect id="Rectangle" width="32" height="32" fill="#9c93ce" rx="10"/>
    <g id="noun_note_754626" transform="translate(6.5 7.5)">
        <path id="패스_7345" d="M15.875 0H3.125A1.1 1.1 0 0 0 2 1.063V12.4a.329.329 0 0 0 .029.135.355.355 0 0 0 .079.112l4.5 4.25a.369.369 0 0 0 .118.074.384.384 0 0 0 .149.029h9A1.1 1.1 0 0 0 17 15.938V1.063A1.1 1.1 0 0 0 15.875 0zM6.5 15.791L3.28 12.75h2.845a.365.365 0 0 1 .375.35zm9.75.147a.365.365 0 0 1-.375.354H7.25V13.1a1.1 1.1 0 0 0-1.125-1.062H2.75V1.063a.365.365 0 0 1 .375-.355h12.75a.365.365 0 0 1 .375.354z" class="cls-2"/>
        <path id="패스_7346" d="M12.227 5H6.773c-.151 0-.273-.224-.273-.5s.122-.5.273-.5h5.455c.151 0 .273.224.273.5s-.123.5-.274.5z" class="cls-2" transform="translate(-1.5 -1.217)"/>
        <path id="패스_7347" d="M12.227 8H6.773c-.151 0-.273-.224-.273-.5s.122-.5.273-.5h5.455c.151 0 .273.224.273.5s-.123.5-.274.5z" class="cls-2" transform="translate(-1.5 -2.13)"/>
        <path id="패스_7348" d="M12 11H7a.5.5 0 0 1 0-1h5a.5.5 0 0 1 0 1z" class="cls-2" transform="translate(-1.5 -3.043)"/>
    </g>
</svg>
