<svg xmlns="http://www.w3.org/2000/svg" width="32" height="32" viewBox="0 0 32 32">
    <rect width="32" height="32" fill="#9c93ce" rx="10"/>
    <path fill="#fff" d="M23.255 20.255v-5.808a6.278 6.278 0 0 0-4.224-5.961v-.374a2.112 2.112 0 1 0-4.224 0v.37a6.336 6.336 0 0 0-4.224 5.966v5.808a1.584 1.584 0 0 0 0 3.168h4.3a2.112 2.112 0 0 0 4.076 0h4.3a1.584 1.584 0 1 0 0-3.168zM15.864 8.112a1.056 1.056 0 1 1 2.112 0V8.2a.66.66 0 0 0-.1 0l-.238-.026-.248-.063a2.032 2.032 0 0 0-.253 0h-.417a2.3 2.3 0 0 0-.269 0h-.238l-.253.032h-.1zm1.056 15.839a1.056 1.056 0 0 1-.913-.528h1.827a1.056 1.056 0 0 1-.915.528zm6.7-1.737a.491.491 0 0 1-.364.153H10.584a.523.523 0 0 1-.364-.9.491.491 0 0 1 .364-.153h.528a.528.528 0 0 0 .528-.528v-6.339a5.28 5.28 0 0 1 6.014-5.227 5.089 5.089 0 0 1 .707.148 5.28 5.28 0 0 1 3.839 5.079v6.336a.528.528 0 0 0 .528.528h.528a.523.523 0 0 1 .364.9z" transform="translate(-1 1)"/>
</svg>
