<svg xmlns="http://www.w3.org/2000/svg" width="20.667" height="20" viewBox="0 0 20.667 20">
    <path fill="none" d="M0 0h20.667v20H0z"/>
    <path fill="#fff" d="M15.986 8.641A5.076 5.076 0 0 0 10.82 3.66a5.076 5.076 0 0 0-5.167 4.981v6.641h10.333zm1.722 7.194l.344.442a.4.4 0 0 1 .041.435.433.433 0 0 1-.385.229H3.931a.433.433 0 0 1-.385-.229.4.4 0 0 1 .041-.435l.344-.442V8.641A6.768 6.768 0 0 1 10.82 2a6.768 6.768 0 0 1 6.889 6.641zm-9.041 1.937h4.306a2.154 2.154 0 0 1-4.306 0z" transform="translate(-.486 -.278)"/>
</svg>
