<svg xmlns="http://www.w3.org/2000/svg" width="13.36" height="17.5" viewBox="0 0 13.36 17.5">
    <g>
        <path fill="#c5c5c5" d="M11.68 17.5h-10a1.652 1.652 0 0 1-1.18-.48 1.553 1.553 0 0 1-.5-1.16V7.5a1.556 1.556 0 0 1 .5-1.16 1.655 1.655 0 0 1 1.18-.48h.82V4.18a4.109 4.109 0 0 1 .56-2.1A4.178 4.178 0 0 1 4.58.56a4.219 4.219 0 0 1 4.2 0 4.168 4.168 0 0 1 1.52 1.52 4.11 4.11 0 0 1 .561 2.1v1.68h.82a1.655 1.655 0 0 1 1.18.48 1.558 1.558 0 0 1 .5 1.16v8.36a1.555 1.555 0 0 1-.5 1.16 1.652 1.652 0 0 1-1.181.48zm-5-7.5a1.669 1.669 0 0 0-1.18 2.86 1.643 1.643 0 0 0 2.36 0A1.68 1.68 0 0 0 6.68 10zm0-8.4a2.5 2.5 0 0 0-1.28.35 2.62 2.62 0 0 0-.95.95 2.517 2.517 0 0 0-.35 1.28v1.68h5.159V4.18A2.514 2.514 0 0 0 8.91 2.9a2.606 2.606 0 0 0-.95-.95 2.5 2.5 0 0 0-1.28-.35z" transform="translate(-3.33 -.32) translate(3.33 .32)"/>
    </g>
</svg>
