<svg xmlns="http://www.w3.org/2000/svg" width="16.025" height="15.978" viewBox="0 0 16.025 15.978">
    <g>
        <path fill="#fff" d="M19.2 23a5.839 5.839 0 0 1-2-.4 13.529 13.529 0 0 1-3.4-1.7 18.7 18.7 0 0 1-2.4-2l-.3-.3H11a26.375 26.375 0 0 1-2-2.4 15.759 15.759 0 0 1-1.6-3.5 5.385 5.385 0 0 1-.3-2.9 2.589 2.589 0 0 1 .7-1.1L9 7.5a1.631 1.631 0 0 1 2.4.1l2 2a1.666 1.666 0 0 1 0 2.3l-1.2 1.2a9.013 9.013 0 0 0 .5.9 13.062 13.062 0 0 0 1.2 1.5l.4.4.2.1a13.062 13.062 0 0 0 1.5 1.2 4.053 4.053 0 0 0 .9.5l1.2-1.2a1.8 1.8 0 0 1 2.4 0l2 2a1.719 1.719 0 0 1 .1 2.4l-1.2 1.2a2.4 2.4 0 0 1-1.2.7 2.959 2.959 0 0 1-1 .2zm-7.1-4.8s1.2 1.1 2.3 1.9a13.687 13.687 0 0 0 3.2 1.6 3.929 3.929 0 0 0 2.3.2 1.275 1.275 0 0 0 .7-.5l1.2-1.2a.661.661 0 0 0-.1-1l-2-2a.716.716 0 0 0-1 0l-1.3 1.3a.9.9 0 0 1-.9.2 6.575 6.575 0 0 1-1.2-.6c-.4-.3-1.1-.9-1.6-1.3l-.1-.1-.5-.5a18.258 18.258 0 0 1-1.3-1.6 6.575 6.575 0 0 1-.6-1.2c-.2-.3 0-.7.1-.9l1.3-1.3c.4-.5.1-.8 0-.9l-2-2a.776.776 0 0 0-1-.1l-1 1.2a2.1 2.1 0 0 0-.5.7 3.918 3.918 0 0 0 .2 2.3 13.687 13.687 0 0 0 1.6 3.2 22.624 22.624 0 0 0 1.9 2.3l.3.3z" transform="translate(-7.018 -7.022)"/>
    </g>
</svg>
