<svg xmlns="http://www.w3.org/2000/svg" width="50" height="50" viewBox="0 0 50 50">
    <defs>
        <clipPath id="clip-path">
            <rect id="사각형_1153" width="40" height="40" fill="#fafbfc" rx="15" transform="translate(104 575)"/>
        </clipPath>
        <clipPath id="clip-path-2">
            <path id="패스_1079" d="M39.894 40.2c-1.307-3.513-9.079-5.251-10.9-6.314a10.128 10.128 0 0 1-5.087 1.33A10.255 10.255 0 0 1 19.4 34.2c-2.552 1.086-9.069 2.813-10.256 6a39.747 39.747 0 0 0-1.858 6.843h34.467a39.68 39.68 0 0 0-1.859-6.843z" transform="translate(-7.285 -33.886)"/>
        </clipPath>
        <style>
            .cls-4{fill:#a9534f}.cls-5{fill:#853f38}.cls-8,.cls-9{fill:none;stroke:#7f5e6a;stroke-miterlimit:10}.cls-8{stroke-width:.391px}.cls-9{stroke-width:.276px}.cls-10{fill:#352836}
        </style>
    </defs>
    <g id="그룹_703" transform="translate(-90 -181)">
        <rect id="사각형_1154" width="50" height="50" fill="#f3f1ff" rx="15" transform="translate(90 181)"/>
        <g id="마스크_그룹_12" clip-path="url(#clip-path)" transform="translate(-9 -389)">
            <g id="Untitled-2" transform="translate(106.767 575)">
                <g id="그룹_572" transform="translate(0 21.047)">
                    <g id="그룹_567">
                        <path id="패스_1076" d="M39.656 38.945c-1.342-3.606-9.549-5.328-10.986-6.373-1.845-1.342-1.258-5.786-1.258-5.786l-3.019.079-3.019-.079s.587 4.445-1.258 5.786c-1.437 1.045-9.644 2.768-10.986 6.373a39.451 39.451 0 0 0-1.845 6.793H41.5a39.38 39.38 0 0 0-1.844-6.793z" class="cls-4" transform="translate(-7.285 -26.785)"/>
                        <path id="패스_1077" d="M23.859 31.744a10.445 10.445 0 0 0 4.065-1.119 13.858 13.858 0 0 0 2.454-1.761 13.689 13.689 0 0 1 .079-2.078l-3.019.079-3.019-.079s.417 3.163-.56 4.958z" class="cls-5" transform="translate(-10.33 -26.785)"/>
                    </g>
                    <g id="그룹_571" transform="translate(0 5.796)">
                        <path id="패스_1078" fill="#ffa655" d="M39.894 40.2c-1.307-3.513-9.079-5.251-10.9-6.314a10.128 10.128 0 0 1-5.087 1.33A10.255 10.255 0 0 1 19.4 34.2c-2.552 1.086-9.069 2.813-10.256 6a39.747 39.747 0 0 0-1.858 6.843h34.467a39.68 39.68 0 0 0-1.859-6.843z" transform="translate(-7.285 -33.886)"/>
                        <g id="그룹_570">
                            <g id="그룹_569">
                                <g id="그룹_568" clip-path="url(#clip-path-2)">
                                    <path id="선_22" d="M0 0L0 16.36" class="cls-8" transform="translate(29.364 .275)"/>
                                    <path id="선_23" d="M0 0L0 16.36" class="cls-8" transform="translate(27.244 .275)"/>
                                    <path id="선_24" d="M0 0L0 16.36" class="cls-8" transform="translate(25.124 .275)"/>
                                    <path id="선_25" d="M0 0L0 16.36" class="cls-8" transform="translate(23.005 .275)"/>
                                    <path id="선_26" d="M0 0L0 16.36" class="cls-8" transform="translate(20.885 .275)"/>
                                    <path id="선_27" d="M0 0L0 16.36" class="cls-8" transform="translate(18.766 .275)"/>
                                    <path id="선_28" d="M0 0L0 16.36" class="cls-8" transform="translate(16.646 .275)"/>
                                    <path id="선_29" d="M0 0L0 16.36" class="cls-8" transform="translate(14.527 .275)"/>
                                    <path id="선_30" d="M0 0L0 16.36" class="cls-8" transform="translate(12.407 .275)"/>
                                    <path id="선_31" d="M0 0L0 16.36" class="cls-8" transform="translate(10.287 .275)"/>
                                    <path id="선_32" d="M0 0L0 16.36" class="cls-8" transform="translate(8.168 .275)"/>
                                    <path id="선_33" d="M0 0L0 16.36" class="cls-8" transform="translate(6.048 .275)"/>
                                    <path id="선_34" d="M0 0L0 16.36" class="cls-8" transform="translate(3.929 .275)"/>
                                    <path id="선_35" d="M0 0L0 16.36" class="cls-8" transform="translate(1.809 .275)"/>
                                    <path id="선_36" d="M0 0L0 16.36" class="cls-8" transform="translate(31.483 .275)"/>
                                    <path id="선_37" d="M0 0L35.878 0" class="cls-9" transform="translate(-1.125 5.103)"/>
                                    <path id="선_38" d="M0 0L35.878 0" class="cls-9" transform="translate(-1.125 7.223)"/>
                                    <path id="선_39" d="M0 0L35.878 0" class="cls-9" transform="translate(-1.125 9.342)"/>
                                    <path id="선_40" d="M0 0L35.878 0" class="cls-9" transform="translate(-1.125 11.462)"/>
                                    <path id="선_41" d="M0 0L35.878 0" class="cls-9" transform="translate(-1.125 2.983)"/>
                                </g>
                            </g>
                        </g>
                    </g>
                </g>
                <g id="그룹_580" transform="translate(9.164)">
                    <g id="그룹_573" transform="translate(0 5.509)">
                        <path id="패스_1080" d="M21.386 18.031c-.487-1.513-1.642-1.162-1.75-1.126-.113.013-1.307.19-1.1 1.766s1.127 2.445 1.99 2.192c.886-.141 1.35-1.311.86-2.832z" class="cls-5" transform="translate(-18.511 -9.421)"/>
                        <path id="패스_1081" d="M34.222 18.031c.488-1.513 1.642-1.162 1.75-1.126.113.013 1.307.19 1.1 1.766s-1.127 2.445-1.99 2.192c-.882-.141-1.35-1.311-.86-2.832z" class="cls-5" transform="translate(-21.36 -9.421)"/>
                        <path id="패스_1082" d="M32.728 13.981c-.6-6.632-5.646-6.26-6.121-6.21-.475-.05-5.517-.422-6.121 6.21-.608 6.671 2.364 11.028 6.121 10.788 3.757.24 6.729-4.117 6.121-10.788z" class="cls-4" transform="translate(-18.859 -7.751)"/>
                    </g>
                    <g id="그룹_578" transform="translate(3.595 11.565)">
                        <g id="그룹_574" transform="translate(4.488 2.438)">
                            <path id="패스_1083" d="M28.412 21.5a1.1 1.1 0 0 1 .063-.124 1.177 1.177 0 0 1 .071-.115 2.181 2.181 0 0 1 .165-.207 2.355 2.355 0 0 1 .187-.184 2.077 2.077 0 0 1 .206-.164l-.03.087q-.081-.659-.151-1.319c-.042-.441-.091-.881-.125-1.322.092.433.167.87.251 1.3s.153.872.224 1.308l.007.041-.037.047a2.048 2.048 0 0 1-.175.2 2.432 2.432 0 0 1-.194.176 2.177 2.177 0 0 1-.216.154 1.091 1.091 0 0 1-.119.065 1.03 1.03 0 0 1-.127.057z" class="cls-5" transform="translate(-28.412 -18.156)"/>
                        </g>
                        <g id="그룹_575" transform="translate(1.016 1.634)">
                            <ellipse id="타원_43" cx=".414" cy=".904" class="cls-10" rx=".414" ry=".904"/>
                            <ellipse id="타원_44" cx=".414" cy=".904" class="cls-10" rx=".414" ry=".904" transform="translate(5.69)"/>
                        </g>
                        <g id="그룹_576">
                            <path id="패스_1084" d="M22.915 16.228a1.5 1.5 0 0 1 .3-.468 1.853 1.853 0 0 1 .2-.19 1.571 1.571 0 0 1 .253-.178 1.8 1.8 0 0 1 .307-.143 1.615 1.615 0 0 1 .352-.071c.061 0 .122-.008.183-.009s.121.015.181.023a1.3 1.3 0 0 1 .335.1 1.58 1.58 0 0 1 .275.162 1.136 1.136 0 0 1 .2.188.857.857 0 0 1 .145.178c.037.057.066.109.09.152.046.085.068.135.068.135s-.053-.024-.136-.069c-.041-.023-.092-.049-.145-.082a1.549 1.549 0 0 0-.187-.093 1.606 1.606 0 0 0-.217-.094 2.46 2.46 0 0 0-.239-.075 1.514 1.514 0 0 0-.254-.039c-.043 0-.086 0-.129-.009l-.131.011a1.891 1.891 0 0 0-.263.039c-.085.03-.174.043-.256.08a2.47 2.47 0 0 0-.242.1c-.079.031-.15.072-.22.1l-.187.1-.147.08z" class="cls-10" transform="translate(-22.915 -15.169)"/>
                        </g>
                        <g id="그룹_577" transform="translate(5.73)">
                            <path id="패스_1085" d="M29.934 16.228a1.5 1.5 0 0 1 .3-.468 1.853 1.853 0 0 1 .2-.19 1.571 1.571 0 0 1 .253-.178 1.8 1.8 0 0 1 .307-.143 1.615 1.615 0 0 1 .352-.071c.061 0 .122-.008.183-.009s.121.015.181.023a1.3 1.3 0 0 1 .335.1 1.58 1.58 0 0 1 .275.162 1.135 1.135 0 0 1 .2.188.857.857 0 0 1 .145.178c.037.057.066.109.09.152.046.085.068.135.068.135s-.053-.024-.136-.069c-.041-.023-.092-.049-.145-.082a1.549 1.549 0 0 0-.187-.093 1.607 1.607 0 0 0-.217-.094 2.46 2.46 0 0 0-.239-.075 1.514 1.514 0 0 0-.254-.039c-.043 0-.086 0-.129-.009l-.131.011a1.886 1.886 0 0 0-.263.039c-.085.03-.174.043-.256.08a2.47 2.47 0 0 0-.242.1c-.079.031-.15.072-.22.1l-.187.1-.147.08z" class="cls-10" transform="translate(-29.934 -15.169)"/>
                        </g>
                        <path id="패스_1086" fill="#fff" d="M24.91 23.43l5.588-.053a4.418 4.418 0 0 1-5.588.053z" transform="translate(-23.281 -16.677)"/>
                    </g>
                    <g id="그룹_579" transform="translate(.539)">
                        <path id="패스_1087" d="M20.059 10.495s-.338 8.293.621 12.186A5.215 5.215 0 0 0 23.5 26.4s4.965 1.918 7.729-1.185c.8-.893 2.031-5.585 1.467-13.991l-2.031-.846s.335 4.122 1.354 4.63c0 0-.3 7.36-1.58 8.237-1.072.733.733-3.385-1.354-3.329a13.508 13.508 0 0 0-2.144.113s-3.723-.621-3.667.846.451 2.426-.056 2.426-2.369-1.185-2.031-8.914c0 0 1.072-.395 1.072-3.1 0-3.564-2.2-.792-2.2-.792z" class="cls-10" transform="translate(-19.323 -2.557)"/>
                        <path id="패스_1088" d="M21.881 8.489s1.623 2.2 3.554 2.2c1.072 0 0-1.862 0-1.862s1.523 2.369 3.1 2.313.226-2.313.226-2.313 1.185 2.426 2.652 2.313.226-2.482.226-2.482.677 2.539 2.087 2.2-.338-2.539-.338-2.539 1.185 1.128 1.692 1.072.508-1.58-1.241-2.313c0 0 1.749-.056 1.805-.9.064-.959-1.072-1.3-3.667-1.015 0 0 2.144-.9 1.692-1.692s-2.369.338-2.369.338 1.918-1.072.79-1.918c-.926-.695-5.754-.677-8.688 2.821 0 0 6.093-3.216 5.359-3.667-.518-.319-7.807 1.31-8.914 4.4-1.354 3.78-.338 5.924.1 8.5z" class="cls-10" transform="translate(-19.171 -1.002)"/>
                    </g>
                </g>
            </g>
        </g>
    </g>
</svg>
