<svg xmlns="http://www.w3.org/2000/svg" width="75" height="75" viewBox="0 0 75 75">
    <defs>
        <clipPath id="clip-path">
            <path id="사각형_5807" fill="none" d="M0 0H75V75H0z"/>
        </clipPath>
        <style>
            .cls-4{fill:#fff}.cls-5{fill:#373737}
        </style>
    </defs>
    <g id="그룹_12211">
        <g id="그룹_12215">
            <g id="그룹_12214" clip-path="url(#clip-path)">
                <path id="사각형_5805" fill="#f79857" d="M15.32 0h44.359A15.321 15.321 0 0 1 75 15.321v44.358A15.321 15.321 0 0 1 59.679 75H15.32A15.32 15.32 0 0 1 0 59.68V15.32A15.32 15.32 0 0 1 15.32 0z"/>
                <g id="그룹_12229" transform="translate(15 9.123)">
                    <path id="사각형_5813" d="M0 0H34.292V24.952H0z" class="cls-4" transform="translate(4.864 22.513)"/>
                    <g id="그룹_12228" transform="translate(0 9.377)">
                        <g id="그룹_12230">
                            <path id="패스_7463" d="M39.614 49.774H5.323a.9.9 0 0 1-.9-.9V23.926a.9.9 0 0 1 .9-.9h34.291a.9.9 0 0 1 .9.9v24.951a.9.9 0 0 1-.9.9m-33.4-1.793h32.5V24.822H6.219z" class="cls-5" transform="translate(-.458 -10.79)"/>
                            <path id="패스_7464" d="M43.715 24.711h.013l-.047-.176c0-.018-.009-.033-.013-.052l-3.592-14.1H3.6L1.112 24.469a2.939 2.939 0 0 0-.112.79c0 1.943 1.936 3.519 4.321 3.519a4.141 4.141 0 0 0 4.27-2.992 4.15 4.15 0 0 0 4.26 2.952 4.145 4.145 0 0 0 4.266-2.97 4.147 4.147 0 0 0 4.266 2.97 4.146 4.146 0 0 0 4.265-2.97 4.145 4.145 0 0 0 4.264 2.97 4.145 4.145 0 0 0 4.266-2.97 4.145 4.145 0 0 0 4.265 2.97c2.387 0 4.323-1.574 4.323-3.52a3 3 0 0 0-.049-.507" class="cls-4" transform="translate(-.103 -9.481)"/>
                            <path id="패스_7465" d="M5.218 29.569C2.341 29.569 0 27.588 0 25.155a3.816 3.816 0 0 1 .145-1.031l2.469-14.006a.9.9 0 0 1 .886-.741h36.473a.9.9 0 0 1 .868.676l3.608 14.161a.9.9 0 0 1 .089.392.958.958 0 0 1 0 .1 3.6 3.6 0 0 1 .025.407c0 2.436-2.341 4.415-5.219 4.415a5.521 5.521 0 0 1-4.266-1.865 5.81 5.81 0 0 1-8.53 0 5.518 5.518 0 0 1-4.265 1.865 5.519 5.519 0 0 1-4.265-1.865 5.52 5.52 0 0 1-4.265 1.865A5.537 5.537 0 0 1 9.5 27.685a5.513 5.513 0 0 1-4.283 1.884m-.969-18.4L1.891 24.521a2.41 2.41 0 0 0-.1.634c0 1.445 1.537 2.621 3.425 2.621A3.274 3.274 0 0 0 8.6 25.518a.9.9 0 0 1 .876-.732.869.869 0 0 1 .885.721 3.3 3.3 0 0 0 3.383 2.231 3.283 3.283 0 0 0 3.383-2.242.9.9 0 0 1 1.762 0 3.283 3.283 0 0 0 3.384 2.242 3.282 3.282 0 0 0 3.384-2.244.9.9 0 0 1 1.762 0 3.282 3.282 0 0 0 3.383 2.244 3.281 3.281 0 0 0 3.384-2.244.9.9 0 0 1 1.762 0 3.284 3.284 0 0 0 3.385 2.244c1.889 0 3.426-1.176 3.426-2.622a2.065 2.065 0 0 0-.036-.351c0-.026-.008-.053-.011-.079l-.009-.031-3.428-13.485z" class="cls-5" transform="translate(0 -9.377)"/>
                            <path id="선_2464" d="M1.598 14.537L0 0" class="cls-4" transform="translate(33.476 1.651)"/>
                            <path id="패스_7466" d="M38.833 26.549a.9.9 0 0 1-.89-.8l-1.6-14.537a.9.9 0 1 1 1.782-.2l1.6 14.536a.9.9 0 0 1-.793.989.925.925 0 0 1-.1.006" class="cls-5" transform="translate(-3.761 -9.464)"/>
                            <path id="선_2465" d="M0 14.538L1.598 0" class="cls-4" transform="translate(9.52 1.442)"/>
                            <path id="패스_7467" d="M10.516 26.317a.925.925 0 0 1-.1-.006.9.9 0 0 1-.793-.989l1.6-14.536a.9.9 0 1 1 1.782.2l-1.6 14.536a.9.9 0 0 1-.89.8" class="cls-5" transform="translate(-.995 -9.44)"/>
                            <path id="선_2466" d="M0 14.42L0 0" class="cls-4" transform="translate(26.539 1.534)"/>
                            <path id="패스_7468" d="M29.5 26.3a.9.9 0 0 1-.9-.9V10.985a.9.9 0 0 1 1.793 0V25.4a.9.9 0 0 1-.9.9" class="cls-5" transform="translate(-2.96 -9.451)"/>
                            <path id="선_2467" d="M0 14.42L0 0" class="cls-4" transform="translate(18.004 1.495)"/>
                            <path id="패스_7469" d="M19.979 26.257a.9.9 0 0 1-.9-.9V10.941a.9.9 0 0 1 1.793 0V25.36a.9.9 0 0 1-.9.9" class="cls-5" transform="translate(-1.975 -9.446)"/>
                            <path id="패스_7472" d="M34.006 42.988H12.264a.672.672 0 0 1-.672-.672v-6.949a.673.673 0 0 1 .672-.672h21.742a.673.673 0 0 1 .672.672v6.948a.672.672 0 0 1-.672.672m-21.069-1.344h20.4v-5.6h-20.4z" class="cls-5" transform="translate(-1.2 -11.997)"/>
                        </g>
                    </g>
                </g>
            </g>
        </g>
    </g>
</svg>
