<svg width="80" height="80" xmlns="http://www.w3.org/2000/svg">
    <g fill="none" fill-rule="evenodd">
        <path d="M0 0h80v80H0z"/>
        <path d="M65.094 70.156c.854 0 1.625-.208 2.312-.625a4.585 4.585 0 0 0 1.625-1.656c.396-.688.594-1.458.594-2.313 0-.604-.104-1.187-.313-1.75a3.957 3.957 0 0 0-1-1.5L54.733 48.71l.276-.38c.664-.981 1.26-2.012 1.785-3.092l.504-1.096c1.281-2.97 1.922-6.151 1.922-9.547 0-3.375-.64-6.547-1.922-9.516a24.992 24.992 0 0 0-5.313-7.844 24.992 24.992 0 0 0-7.843-5.312C41.17 10.64 37.99 10 34.594 10c-3.375 0-6.547.64-9.516 1.922a25.124 25.124 0 0 0-7.844 5.297 24.757 24.757 0 0 0-5.312 7.843C10.64 28.043 10 31.22 10 34.594c0 3.396.64 6.578 1.922 9.547a24.992 24.992 0 0 0 5.312 7.843 24.992 24.992 0 0 0 7.844 5.313c2.969 1.281 6.14 1.922 9.516 1.922 3.396 0 6.578-.64 9.547-1.922a25.607 25.607 0 0 0 3.19-1.648l.758-.488L61.75 68.844c.344.344.72.617 1.128.82l.419.18a5.217 5.217 0 0 0 1.797.312zm-30.5-17.531c-2.48 0-4.802-.474-6.969-1.422a18.686 18.686 0 0 1-5.734-3.89A18.09 18.09 0 0 1 18 41.578c-.938-2.177-1.406-4.505-1.406-6.984 0-2.459.468-4.776 1.406-6.953a18.464 18.464 0 0 1 3.89-5.766 17.982 17.982 0 0 1 5.735-3.89c2.167-.928 4.49-1.391 6.969-1.391s4.807.463 6.984 1.39a17.755 17.755 0 0 1 5.734 3.891 18.826 18.826 0 0 1 3.891 5.766c.948 2.177 1.422 4.494 1.422 6.953 0 2.479-.474 4.807-1.422 6.984a18.44 18.44 0 0 1-3.89 5.734 18.44 18.44 0 0 1-5.735 3.891c-2.177.948-4.505 1.422-6.984 1.422z" fill="#AAA" fill-rule="nonzero"/>
    </g>
</svg>
