<svg width="24" height="23" xmlns="http://www.w3.org/2000/svg">
    <g fill="none" fill-rule="evenodd">
        <path d="M0 0h24v22.4H0z"/>
        <path d="M19.884 20.029c.257 0 .488-.059.694-.175a1.33 1.33 0 0 0 .488-.464c.118-.192.178-.408.178-.647 0-.17-.032-.333-.094-.49a1.106 1.106 0 0 0-.3-.42l-4.074-3.81.083-.106c.199-.275.377-.563.535-.866l.151-.307a6.292 6.292 0 0 0 .577-2.673c0-.945-.192-1.833-.577-2.664a6.995 6.995 0 0 0-1.593-2.196 7.593 7.593 0 0 0-5.217-2.026 7.587 7.587 0 0 0-5.208 2.021 6.93 6.93 0 0 0-1.594 2.197 6.3 6.3 0 0 0-.577 2.668c0 .951.192 1.842.577 2.673a6.995 6.995 0 0 0 1.594 2.197 7.568 7.568 0 0 0 5.208 2.026 7.593 7.593 0 0 0 3.82-1l.228-.137 4.098 3.831c.103.097.216.173.339.23l.125.05c.172.059.352.088.54.088zm-9.15-4.909c-.743 0-1.44-.133-2.09-.398a5.64 5.64 0 0 1-1.72-1.09 5.065 5.065 0 0 1-1.168-1.605 4.612 4.612 0 0 1-.422-1.956c0-.688.141-1.337.422-1.947.281-.61.67-1.147 1.167-1.614a5.428 5.428 0 0 1 1.72-1.09c.65-.259 1.348-.389 2.091-.389.744 0 1.443.13 2.096.39a5.36 5.36 0 0 1 1.72 1.089 5.268 5.268 0 0 1 1.167 1.614c.285.61.427 1.259.427 1.947 0 .694-.142 1.346-.427 1.956a5.162 5.162 0 0 1-1.167 1.606 5.567 5.567 0 0 1-3.816 1.487z" fill="#FFF" fill-rule="nonzero"/>
    </g>
</svg>
