<svg width="24" height="24" xmlns="http://www.w3.org/2000/svg">
    <g fill="none" fill-rule="evenodd">
        <path d="M0 0h24v24H0z"/>
        <path d="M19.884 21.46c.257 0 .488-.063.694-.188a1.365 1.365 0 0 0 .666-1.19 1.5 1.5 0 0 0-.094-.526 1.187 1.187 0 0 0-.3-.45l-4.074-4.08.083-.115c.199-.294.377-.603.535-.927l.151-.33a7.15 7.15 0 0 0 .577-2.863 7.127 7.127 0 0 0-.577-2.855 7.498 7.498 0 0 0-1.593-2.353 7.498 7.498 0 0 0-2.354-1.594 7.15 7.15 0 0 0-2.864-.576 7.127 7.127 0 0 0-2.854.576 7.537 7.537 0 0 0-2.353 1.59A7.427 7.427 0 0 0 3.933 7.93a7.16 7.16 0 0 0-.577 2.86 7.15 7.15 0 0 0 .577 2.864c.384.89.915 1.675 1.594 2.353a7.498 7.498 0 0 0 2.353 1.594c.89.384 1.842.576 2.854.576a7.15 7.15 0 0 0 2.864-.576c.334-.145.653-.31.958-.495l.227-.146 4.098 4.105c.103.103.216.185.339.246l.125.054c.172.062.352.093.54.093zm-9.15-5.26c-.743 0-1.44-.142-2.09-.427a5.606 5.606 0 0 1-1.72-1.167 5.427 5.427 0 0 1-1.168-1.72 5.24 5.24 0 0 1-.422-2.095c0-.738.141-1.433.422-2.086a5.54 5.54 0 0 1 1.167-1.73c.497-.5 1.07-.89 1.72-1.167a5.258 5.258 0 0 1 2.091-.417c.744 0 1.443.139 2.096.417a5.326 5.326 0 0 1 1.72 1.167c.494.5.883 1.077 1.167 1.73.285.653.427 1.348.427 2.086 0 .743-.142 1.442-.427 2.095a5.532 5.532 0 0 1-2.887 2.887 5.191 5.191 0 0 1-2.096.427z" fill="#111" fill-rule="nonzero"/>
    </g>
</svg>
