<svg width="20" height="20" xmlns="http://www.w3.org/2000/svg">
    <g fill="none" fill-rule="evenodd">
        <path d="M0 0h20v20H0z"/>
        <path d="M16.57 17.883c.214 0 .407-.052.578-.156a1.138 1.138 0 0 0 .555-.992 1.25 1.25 0 0 0-.078-.438.99.99 0 0 0-.25-.375L13.98 12.52l.069-.095c.166-.245.315-.503.446-.773l.126-.274c.32-.742.48-1.538.48-2.387 0-.844-.16-1.637-.48-2.379a6.248 6.248 0 0 0-1.328-1.96 6.248 6.248 0 0 0-1.961-1.329 5.958 5.958 0 0 0-2.387-.48c-.843 0-1.636.16-2.379.48a6.281 6.281 0 0 0-1.96 1.324A6.19 6.19 0 0 0 3.276 6.61c-.32.745-.48 1.54-.48 2.383 0 .85.16 1.645.48 2.387.32.742.763 1.396 1.328 1.96a6.248 6.248 0 0 0 1.961 1.329c.743.32 1.536.48 2.38.48.848 0 1.644-.16 2.386-.48.278-.12.544-.257.798-.412l.189-.122 3.415 3.42c.086.087.18.155.282.206l.105.045c.143.052.293.078.45.078zM8.945 13.5c-.62 0-1.2-.118-1.742-.355a4.671 4.671 0 0 1-1.433-.973 4.523 4.523 0 0 1-.973-1.434 4.367 4.367 0 0 1-.352-1.746c0-.614.117-1.194.352-1.738a4.616 4.616 0 0 1 .973-1.441c.414-.417.891-.741 1.433-.973a4.382 4.382 0 0 1 1.742-.348 4.41 4.41 0 0 1 3.18 1.32c.411.417.736.898.973 1.442.237.544.355 1.124.355 1.738 0 .62-.118 1.202-.355 1.746a4.61 4.61 0 0 1-2.407 2.407 4.326 4.326 0 0 1-1.746.355z" fill="#999" fill-rule="nonzero"/>
    </g>
</svg>
