<svg width="20" height="20" xmlns="http://www.w3.org/2000/svg">
    <g fill="none" fill-rule="evenodd">
        <path d="M0 0h20v20H0z"/>
        <path d="M15 13.4c-.633 0-1.2.25-1.633.642l-5.942-3.459c.042-.191.075-.383.075-.583 0-.2-.033-.392-.075-.583L13.3 5.992a2.49 2.49 0 0 0 1.7.675c1.383 0 2.5-1.117 2.5-2.5 0-1.384-1.117-2.5-2.5-2.5a2.497 2.497 0 0 0-2.5 2.5c0 .2.033.391.075.583L6.7 8.175A2.49 2.49 0 0 0 5 7.5 2.497 2.497 0 0 0 2.5 10c0 1.383 1.117 2.5 2.5 2.5a2.49 2.49 0 0 0 1.7-.675l5.933 3.467a2.351 2.351 0 0 0-.066.541A2.436 2.436 0 0 0 15 18.267a2.436 2.436 0 0 0 2.433-2.434A2.436 2.436 0 0 0 15 13.4z" fill="#806EFF" fill-rule="nonzero"/>
    </g>
</svg>
