<svg width="16" height="16" xmlns="http://www.w3.org/2000/svg">
    <defs>
        <linearGradient x1="0%" y1="4.332%" x2="98.294%" y2="94.11%" id="a">
            <stop stop-color="#EFF2F5" offset="0%"/>
            <stop stop-color="#EFF2F5" offset="100%"/>
        </linearGradient>
    </defs>
    <g fill="none" fill-rule="evenodd">
        <path d="M0 0h16v16H0z"/>
        <path d="M0 0h16v16H0z"/>
        <path d="m8 11.513 2.767 1.674a.665.665 0 0 0 .993-.72l-.733-3.147 2.446-2.12a.665.665 0 0 0-.38-1.167l-3.22-.273-1.26-2.973a.667.667 0 0 0-1.226 0l-1.26 2.966-3.22.274a.665.665 0 0 0-.38 1.166l2.446 2.12-.733 3.147a.665.665 0 0 0 .993.72L8 11.513z" fill="url(#a)" fill-rule="nonzero"/>
    </g>
</svg>
