<svg xmlns="http://www.w3.org/2000/svg" width="27.156" height="27.129" viewBox="0 0 27.156 27.129">
    <g fill="none" stroke-miterlimit="10">
        <path d="M21.123 27.122a1.31 1.31 0 0 1-.626-.157l-6.94-3.811-6.94 3.811a1.308 1.308 0 0 1-1.436-.111 1.461 1.461 0 0 1-.537-1.4l1.361-8.035L.4 11.709a1.476 1.476 0 0 1-.34-1.427 1.38 1.38 0 0 1 1.1-.97l7.758-1.185L12.333.805a1.334 1.334 0 0 1 2.449 0l3.456 7.307L25.995 9.3a1.38 1.38 0 0 1 1.1.97 1.476 1.476 0 0 1-.34 1.427L21.151 17.4l1.361 8.035a1.461 1.461 0 0 1-.544 1.427 1.315 1.315 0 0 1-.844.257z"/>
        <path fill="#9c93ce" d="M5.985 26.13c.052 0 .102-.014.152-.041l6.94-3.81.48-.265.482.264 6.935 3.808c.046.024.094.036.144.036h.027l.027.001h.014c.065 0 .128-.02.185-.06.125-.097.188-.275.157-.446l-.002-.006v-.006l-1.361-8.035-.086-.503.358-.365 5.6-5.702c.106-.113.145-.286.102-.444-.048-.145-.162-.25-.295-.27L18.088 9.1l-.526-.08-.227-.481-3.456-7.307-.002-.004-.002-.005C13.81 1.086 13.689 1 13.558 1c-.132 0-.253.086-.319.228L9.824 8.549l-.226.485-.53.081L1.31 10.3c-.13.02-.244.125-.292.27-.043.158-.003.332.103.445l5.6 5.702.357.364-.085.503L5.63 25.62c-.029.172.033.345.16.442.058.045.125.068.194.068m0 1c-.284 0-.566-.093-.803-.275-.42-.321-.628-.865-.537-1.402l1.36-8.035L.4 11.71c-.357-.373-.488-.922-.34-1.427.16-.518.588-.894 1.102-.97l7.756-1.185L12.333.805C12.561.313 13.036 0 13.558 0c.521 0 .997.313 1.224.805l3.457 7.307 7.756 1.185c.514.076.941.453 1.102.97.147.505.016 1.054-.34 1.427l-5.606 5.71 1.36 8.034c.1.546-.113 1.103-.544 1.427-.23.169-.502.259-.78.259-.022 0-.043 0-.064-.002h-.005c-.216 0-.428-.054-.62-.157l-6.94-3.81-6.94 3.81c-.199.11-.416.164-.633.164z"/>
    </g>
</svg>
