<svg xmlns="http://www.w3.org/2000/svg" width="19.657" height="19.655" viewBox="0 0 19.657 19.655">
    <path fill="#9c93ce" d="M12.818 13.491v6.183h-2.661V13.86a.328.328 0 0 0-.655 0v5.815H6.84v-6.184a.984.984 0 0 1 .983-.983h4.013a.984.984 0 0 1 .982.983zm5.405-3.09a3.352 3.352 0 0 1-3.431-.541.33.33 0 0 0-.427 0 3.352 3.352 0 0 1-4.322 0 .331.331 0 0 0-.429 0 3.352 3.352 0 0 1-4.323 0 .33.33 0 0 0-.427 0 3.348 3.348 0 0 1-3.429.541.327.327 0 0 0-.451.3v7.333a1.638 1.638 0 0 0 1.638 1.638h3.563v-6.181a1.64 1.64 0 0 1 1.638-1.638h4.013a1.64 1.64 0 0 1 1.638 1.638v6.183h3.563a1.638 1.638 0 0 0 1.638-1.638V10.7a.327.327 0 0 0-.451-.3zM2.458 5.588a.328.328 0 0 1-.327-.349.335.335 0 0 1 .338-.306h16.576a.328.328 0 0 0 .3-.458L17.5.216a.327.327 0 0 0-.3-.2H2.458a.327.327 0 0 0-.3.2L.028 5.13A11.109 11.109 0 0 0 0 7.293 2.7 2.7 0 0 0 4.941 8.8a.165.165 0 0 1 .274 0 2.7 2.7 0 0 0 4.477 0 .165.165 0 0 1 .273 0 2.7 2.7 0 0 0 4.477 0 .164.164 0 0 1 .271 0 2.7 2.7 0 0 0 4.943-1.551V5.916a.328.328 0 0 0-.328-.328H2.458z" transform="translate(0 -.019)"/>
</svg>
