<svg xmlns="http://www.w3.org/2000/svg" width="322.31" height="129.028" viewBox="0 0 322.31 129.028">
    <defs>
        <filter id="4qaew21xwa" width="340.31" height="147.028" x="-9" y="-6" filterUnits="userSpaceOnUse">
            <feOffset dy="3"/>
            <feGaussianBlur result="blur" stdDeviation="3"/>
            <feFlood flood-opacity=".161"/>
            <feComposite in2="blur" operator="in"/>
            <feComposite in="SourceGraphic"/>
        </filter>
        <filter id="u94l5ah7uc" width="340.31" height="147.026" x="-9" y="-5.999" filterUnits="userSpaceOnUse">
            <feOffset dy="3"/>
            <feGaussianBlur result="blur-2" stdDeviation="3"/>
            <feFlood flood-opacity=".161"/>
            <feComposite in2="blur-2" operator="in"/>
            <feComposite in="SourceGraphic"/>
        </filter>
        <clipPath id="a3af7pfhbb"/>
    </defs>
    <g>
        <g clip-path="url(#a3af7pfhbb)" transform="rotate(-90 64.514 64.514)">
            <g filter="url(#u94l5ah7uc)" transform="rotate(90 64.515 64.515)">
                <path fill="#fff" d="M129.026 299.561V22.748c-11.057 0-20.044-9.729-20.451-21.894-.028-.28-.046-.566-.046-.855h-6.558c0 4.234-3.092 7.667-6.906 7.667s-6.9-3.433-6.9-7.667H81.6c0 4.234-3.092 7.667-6.9 7.667S67.792 4.234 67.792 0h-6.558c0 4.234-3.092 7.667-6.9 7.667S47.423 4.234 47.423 0h-6.558c0 4.234-3.092 7.667-6.9 7.667S27.055 4.234 27.055 0H20.5c0 .289-.018.575-.045.855-.413 12.164-9.4 21.893-20.455 21.893v276.813c11.055 0 20.042 9.73 20.451 21.894.027.28.045.565.045.855h6.559c0-4.234 3.092-7.667 6.906-7.667s6.9 3.432 6.9 7.667h6.558c0-4.234 3.092-7.667 6.906-7.667s6.9 3.432 6.9 7.667h6.558c0-4.234 3.092-7.667 6.906-7.667s6.9 3.432 6.9 7.667h6.558c0-4.234 3.092-7.667 6.9-7.667s6.906 3.432 6.906 7.667h6.558c0-.29.018-.575.046-.855.407-12.165 9.394-21.894 20.451-21.894" transform="rotate(-90 64.515 64.515)"/>
            </g>
        </g>
    </g>
</svg>
