<svg xmlns="http://www.w3.org/2000/svg" width="70.762" height="70.762" viewBox="0 0 70.762 70.762">
    <path fill="#c5c5c5" d="M35.38 70.762A35.39 35.39 0 0 1 21.609 2.78a35.39 35.39 0 0 1 27.544 65.2 35.161 35.161 0 0 1-13.773 2.782zm0-55.865a13.05 13.05 0 0 1 13.036 13.035 20.094 20.094 0 0 1-6.28 13.858 28.012 28.012 0 0 1 15.592 10.35 27.933 27.933 0 0 0-42.1-36.51 27.938 27.938 0 0 0-2.6 36.51 28.02 28.02 0 0 1 15.596-10.35 20.1 20.1 0 0 1-6.278-13.858A13.049 13.049 0 0 1 35.38 14.9z"/>
</svg>
