<svg width="75" height="24" xmlns="http://www.w3.org/2000/svg">
    <path d="m28.52.362-9.83 23.276h-6.433L7.403 5.065c-.243-1.085-.607-1.568-1.456-2.05C4.49 2.291 2.063 1.447 0 1.085L.121.362h10.316c1.335 0 2.548.844 2.791 2.412l2.549 13.507L22.087.482h6.432v-.12zM53.64 16.04c0-6.15-8.494-6.512-8.494-9.166 0-.844.85-1.688 2.548-1.93.85-.12 3.277-.24 5.947 1.086l1.092-4.945C53.277.603 51.456 0 49.029 0c-5.946 0-10.194 3.136-10.194 7.719 0 3.376 3.034 5.186 5.34 6.27 2.306 1.086 3.155 1.81 3.155 2.895 0 1.568-1.82 2.292-3.64 2.292-3.035 0-4.855-.844-6.19-1.447l-1.092 5.065c1.456.603 4.005 1.206 6.675 1.206 6.31 0 10.436-3.136 10.558-7.96m15.776 7.598H75L70.146.362h-5.219c-1.213 0-2.184.723-2.548 1.688l-9.102 21.588h6.31l1.214-3.497h7.767l.85 3.497zm-6.796-8.2 3.156-8.684 1.82 8.683h-4.976zM37.136.361 32.16 23.638h-6.068L31.068.362h6.068z" fill="#FFF" fill-rule="nonzero"/>
</svg>
