<svg xmlns="http://www.w3.org/2000/svg" width="21.666" height="21.667" viewBox="0 0 21.666 21.667">
    <path fill="#c5c5c5" d="M10.834 0a10.83 10.83 0 1 1-5.059 20.4h-.034c-.324-.13-.585-.357-.888-.509a1.548 1.548 0 0 0-1.061-.053 23.822 23.822 0 0 1-2.449.7c-.433.012-.563-.248-.563-.67a20.257 20.257 0 0 1 .759-2.524 1.336 1.336 0 0 0-.1-1.074l-.217-.421A10.648 10.648 0 0 1 0 10.9v-.066A10.835 10.835 0 0 1 10.834 0zm4.993 9.457a1.387 1.387 0 1 0 1.387 1.387 1.388 1.388 0 0 0-1.387-1.387zm-4.993 0a1.387 1.387 0 1 0 1.386 1.387 1.383 1.383 0 0 0-1.386-1.387zm-5 0a1.387 1.387 0 0 0 0 2.773 1.387 1.387 0 1 0 0-2.773z" opacity="0.4" transform="translate(-.001)"/>
</svg>
