<svg width="181" height="32" xmlns="http://www.w3.org/2000/svg">
    <g fill-rule="nonzero" fill="none">
        <path d="M80.123 21.39V14.71c0-2.515-1.62-4.207-4.228-4.23a4.178 4.178 0 0 0-3.779 1.893 3.96 3.96 0 0 0-3.554-1.892 3.567 3.567 0 0 0-3.149 1.58V10.75h-2.339v10.64h2.362V15.49c0-1.847 1.035-2.826 2.631-2.826 1.552 0 2.34 1.001 2.34 2.804v5.922h2.361v-5.9c0-1.847 1.08-2.826 2.632-2.826 1.597 0 2.361 1.001 2.361 2.804v5.922h2.362zm34.953-10.641h-3.824V7.521h-2.361v3.228h-2.182v2.115h2.182v4.852c0 2.471.967 3.94 3.733 3.94a5.538 5.538 0 0 0 2.924-.823l-.675-1.981c-.627.37-1.339.577-2.069.6-1.17 0-1.552-.712-1.552-1.78v-4.808h3.824v-2.115zm19.95-.267a3.178 3.178 0 0 0-2.834 1.558V10.75h-2.316v10.64h2.339v-5.965c0-1.759.764-2.738 2.294-2.738.5-.007.997.084 1.462.267l.72-2.182a5.045 5.045 0 0 0-1.665-.29zm-30.162 1.113a8.105 8.105 0 0 0-4.386-1.113c-2.721 0-4.475 1.29-4.475 3.406 0 1.736 1.304 2.805 3.71 3.139l1.103.155c1.282.178 1.89.512 1.89 1.113 0 .824-.856 1.291-2.453 1.291a5.77 5.77 0 0 1-3.576-1.113l-1.102 1.803a7.814 7.814 0 0 0 4.656 1.38c3.104 0 4.903-1.446 4.903-3.472 0-1.87-1.417-2.85-3.756-3.183l-1.102-.156c-1.012-.134-1.822-.334-1.822-1.046 0-.78.765-1.247 2.047-1.247a6.985 6.985 0 0 1 3.351.913l1.012-1.87zm62.663-1.113a3.178 3.178 0 0 0-2.834 1.558V10.75h-2.316v10.64h2.339v-5.965c0-1.759.764-2.738 2.294-2.738.5-.007.997.084 1.462.267l.72-2.182a5.044 5.044 0 0 0-1.665-.29zm-30.14 5.587c0 3.228 2.273 5.588 5.737 5.588a5.67 5.67 0 0 0 3.868-1.27l-1.125-1.87a4.757 4.757 0 0 1-2.811.958c-1.867-.022-3.239-1.358-3.239-3.406s1.372-3.383 3.239-3.405a4.757 4.757 0 0 1 2.811.957l1.125-1.87a5.67 5.67 0 0 0-3.868-1.27c-3.464 0-5.736 2.36-5.736 5.588zm21.908 0v-5.32h-2.339v1.291a4.096 4.096 0 0 0-3.396-1.558c-3.014 0-5.376 2.337-5.376 5.587 0 3.25 2.362 5.588 5.376 5.588a4.096 4.096 0 0 0 3.396-1.559v1.292h2.34v-5.32zm-8.704 0c0-1.87 1.237-3.405 3.261-3.405 1.934 0 3.239 1.469 3.239 3.405 0 1.937-1.305 3.406-3.239 3.406-2.024 0-3.261-1.536-3.261-3.406zm-28.228-5.587c-3.149 0-5.353 2.27-5.353 5.587 0 3.384 2.294 5.588 5.51 5.588a6.579 6.579 0 0 0 4.41-1.492l-1.148-1.714a5.155 5.155 0 0 1-3.126 1.113c-1.507 0-2.88-.69-3.217-2.604h7.985c.022-.29.045-.579.045-.89-.023-3.318-2.092-5.588-5.106-5.588zm-.045 2.07c1.507 0 2.474 1.159 2.722 3.2h-5.578c.247-1.903 1.192-3.2 2.856-3.2zM181 16.07V6.475h-2.34v5.565a4.096 4.096 0 0 0-3.395-1.558c-3.015 0-5.376 2.337-5.376 5.587 0 3.25 2.361 5.588 5.376 5.588a4.096 4.096 0 0 0 3.396-1.559v1.292H181v-5.32zm-8.704 0c0-1.87 1.237-3.405 3.26-3.405 1.935 0 3.24 1.469 3.24 3.405 0 1.937-1.305 3.406-3.24 3.406-2.023 0-3.26-1.536-3.26-3.406zm-78.992 0v-5.32h-2.34v1.291a4.096 4.096 0 0 0-3.396-1.558c-3.014 0-5.376 2.337-5.376 5.587 0 3.25 2.362 5.588 5.376 5.588a4.096 4.096 0 0 0 3.396-1.559v1.292h2.34v-5.32zm-8.705 0c0-1.87 1.237-3.405 3.261-3.405 1.935 0 3.24 1.469 3.24 3.405 0 1.937-1.305 3.406-3.24 3.406-2.024 0-3.26-1.536-3.26-3.406z" fill="#231F20"/>
        <path fill="#FF5F00" d="M19.084 3.421h14.145v25.158H19.084z"/>
        <path d="M19.982 16a15.913 15.913 0 0 1 6.174-12.579C19.528-1.735 10.01-.985 4.29 5.145a15.879 15.879 0 0 0 0 21.71c5.72 6.13 15.238 6.88 21.866 1.724A15.913 15.913 0 0 1 19.982 16z" fill="#EB001B"/>
        <path d="M52.312 16c0 6.126-3.533 11.713-9.1 14.39a16.303 16.303 0 0 1-17.056-1.811A15.942 15.942 0 0 0 32.331 16c0-4.908-2.276-9.545-6.175-12.579a16.303 16.303 0 0 1 17.056-1.812c5.567 2.678 9.1 8.265 9.1 14.391z" fill="#F79E1B"/>
    </g>
</svg>
