<svg width="100" height="32" xmlns="http://www.w3.org/2000/svg">
    <path d="M38.026.482 24.919 31.518h-8.576L9.871 6.754c-.324-1.447-.81-2.09-1.942-2.734C5.987 3.055 2.75 1.93 0 1.447L.162.482h13.754c1.78 0 3.398 1.126 3.722 3.216l3.398 18.01L29.45.644h8.576v-.16zM71.52 21.387c0-8.201-11.327-8.683-11.327-12.221 0-1.126 1.133-2.251 3.398-2.573 1.133-.16 4.37-.322 7.929 1.447l1.456-6.593C71.036.804 68.608 0 65.372 0 57.443 0 51.78 4.18 51.78 10.291c0 4.503 4.045 6.915 7.12 8.362 3.074 1.448 4.207 2.412 4.207 3.86 0 2.09-2.427 3.055-4.855 3.055-4.045 0-6.472-1.126-8.252-1.93l-1.456 6.754c1.941.804 5.34 1.608 8.9 1.608 8.414 0 13.915-4.18 14.077-10.613m21.036 10.13H100L93.528.483H86.57c-1.619 0-2.913.965-3.398 2.252L71.036 31.518h8.414l1.618-4.664h10.356l1.133 4.664zm-9.062-10.934 4.207-11.578 2.427 11.578h-6.634zM49.515.483 42.88 31.517h-8.09L41.424.482h8.09z" fill="#1A1F71" fill-rule="nonzero"/>
</svg>
